<svg xmlns="http://www.w3.org/2000/svg" xmlns:svg="http://www.w3.org/2000/svg" xmlns:xlink="http://www.w3.org/1999/xlink" version="1.0" height="1490.0496719763594pt" width="975.0585937499999pt" viewBox="115.04285714285709 12 983.0585937499999 1496.0496719763594" ><defs><style type="text/css">
            @font-face {
                font-family: 'noto_regular';
                src: url('https://app.creately.com/diagram/assets/fonts/noto/noto-regular.woff') format('woff'),
                     url('https://app.creately.com/diagram/assets/fonts/noto/noto-regular.woff2') format('woff2');
                font-weight: normal;
                font-style: normal;
            }
        p {
            margin: 0;
        }
        </style></defs><defs><style>
            span{ display: inline-block; }
        </style></defs><g id="27tpyijg99"><g transform="translate(120.04285714285709 15)"><rect x="0" y="0" width="975.05859375" height="1490.0496719763594" fill="white"/></g></g><g id="1ukvx96b06"><g transform="translate(245 100)"><ellipse cx="15.033334493637085" cy="15" rx="15.033334493637085" ry="15" fill="black" stroke="#3498db" stroke-width="2" stroke-linecap="round" stroke-linejoin="round"/></g></g><g id="1qsczths90"><g transform="translate(445 89.95)"><path d="M 25,50 L 25,50 L 25,50 A 25 25 0 0 1 0 25.000000000000004 L 0,25 L 0,25.000000000000004 A 25 25 0 0 1 25 0 L 125,0 L 125,0 L 125,0 A 25 25 0 0 1 150 25 L 150,25 L 150,25 A 25 25 0 0 1 125 50 L 25,50 Z" fill="white" stroke="black" stroke-width="2" stroke-linecap="round" stroke-linejoin="round"/></g><g transform="translate(448, 97.44999999999999) rotate(0, 72, 17.5)" width="144" height="35"><text text-decoration="none" x="6.5" fill="black" font-size="10pt" font-family="Lato"  y="14">User&#160;</text><text text-decoration="none" x="36.5" fill="black" font-size="10pt" font-family="Lato"  y="14">enter&#160;</text><text text-decoration="none" x="71.5" fill="black" font-size="10pt" font-family="Lato"  y="14">loginid&#160;</text><text text-decoration="none" x="114.5" fill="black" font-size="10pt" font-family="Lato"  y="14">and&#160;</text><text text-decoration="none" x="41.5" fill="black" font-size="10pt" font-family="Lato"  y="36">Password&#160;</text><text text-decoration="none" x="102.5" fill="#4b4b4b" font-size="10pt" font-family="noto_regular"  y="36"></text></g></g><g id="2diq5w2v3i"><g><path d="M 275,115 L 360.03333435058596,115 L 360.03333435058596,114.975 L 360.03333435058596,114.95 L 445,114.95" fill="none" stroke="#000846" stroke-width="2" stroke-linecap="round" stroke-linejoin="round"/><path d="M 445,114.95 L 438.04347826086956,108.45282485875707 M 445,114.95 L 438.04347826086956,121.44717514124294 Z" fill="rgb(255,255,255)" stroke="#000846" stroke-width="2" stroke-linecap="round" stroke-linejoin="round"/></g></g><g id="7gyxqanmlm"><g transform="translate(454.95000000000005 185)"><path d="M 65.03334045410156,0 L 0,47.49999940395355 L 65.03334045410156,94.9999988079071 L 130.06668090820312,47.49999940395355 L 65.03334045410156,0 Z" fill="white" stroke="black" stroke-width="2" stroke-linecap="round" stroke-linejoin="round"/></g><g transform="translate(483.4833404541016, 206.99999940395355) rotate(0, 36.5, 25.5)" width="73" height="51"><text text-decoration="none" x="13" fill="rgb(109, 98, 13)" font-size="10pt" font-family="Lato"  y="14">Correct&#160;</text><text text-decoration="none" x="60" fill="rgb(109, 98, 13)" font-size="10pt" font-family="Lato"  y="14"></text><text text-decoration="none" x="3.5" fill="rgb(109, 98, 13)" font-size="10pt" font-family="Lato"  y="33">loginid&#160;</text><text text-decoration="none" x="46.5" fill="rgb(109, 98, 13)" font-size="10pt" font-family="Lato"  y="33">and&#160;&#160;</text><text text-decoration="none" x="3" fill="rgb(109, 98, 13)" font-size="10pt" font-family="Lato"  y="55">password&#160;</text><text text-decoration="none" x="64" fill="rgb(109, 98, 13)" font-size="10pt" font-family="Lato"  y="55">?</text><text text-decoration="none" x="70" fill="#4b4b4b" font-size="10pt" font-family="noto_regular"  y="55"></text></g></g><g id="6d8ope1jm5"><g><path d="M 520,139.95 L 520,162.475 L 519.975,162.475 L 519.95,162.475 L 519.95,185" fill="none" stroke="#000846" stroke-width="2" stroke-linecap="round" stroke-linejoin="round"/><path d="M 519.95,185 L 526.447175141243,178.04347826086956 M 519.95,185 L 513.4528248587571,178.04347826086956 Z" fill="rgb(255,255,255)" stroke="#000846" stroke-width="2" stroke-linecap="round" stroke-linejoin="round"/></g></g><g id="2mum1h30cx"><g transform="translate(845.05 115)"><path d="M 25,50 L 25,50 L 25,50 A 25 25 0 0 1 0 25.000000000000004 L 0,25 L 0,25.000000000000004 A 25 25 0 0 1 25 0 L 105.06667196750641,0 L 105.06667196750641,0 L 105.06667196750641,0 A 25 25 0 0 1 130.0666719675064 25 L 130.0666719675064,25 L 130.0666719675064,25 A 25 25 0 0 1 105.06667196750641 50 L 25,50 Z" fill="white" stroke="black" stroke-width="2" stroke-linecap="round" stroke-linejoin="round"/></g><g transform="translate(849.5833359837532, 122.5) rotate(0, 60.5, 17.5)" width="121" height="35"><text text-decoration="none" x="6.5" fill="black" font-weight="bold" font-size="10pt" font-family="Lato"  y="14">Invalid&#160;</text><text text-decoration="none" x="53.5" fill="black" font-weight="bold" font-size="10pt" font-family="Lato"  y="14">loginid&#160;</text><text text-decoration="none" x="100.5" fill="black" font-weight="bold" font-size="10pt" font-family="Lato"  y="14">or&#160;</text><text text-decoration="none" x="30" fill="black" font-weight="bold" font-size="10pt" font-family="Lato"  y="36">password</text><text text-decoration="none" x="91" fill="#4b4b4b" font-size="10pt" font-family="noto_regular"  y="36"></text></g></g><g id="7dbf3dmkqi"><mask id="e0b31" x="570.95" y="151" width="353.0999999999999" height="93" maskUnits="userSpaceOnUse"><rect x="570.95" y="151" width="353.0999999999999" height="93" fill="white" /><rect x="767.888888888889" y="217.38888888888903" width="24" height="25" fill="black" /></mask><g mask="url(#e0b31)"><path d="M 584.95,230 L 672.4833380699158,230 L 672.4833380699158,229.9444444444445 L 672.4833380699158,229.88888888888903 L 791.2666690349579,229.88888888888903 L 910.05,229.88888888888903 L 910.05,165" fill="none" stroke="#000846" stroke-width="2" stroke-linecap="round" stroke-linejoin="round"/><path d="M 910.05,165 L 903.552824858757,171.95652173913044 M 910.05,165 L 916.5471751412429,171.95652173913044 Z" fill="rgb(255,255,255)" stroke="#000846" stroke-width="2" stroke-linecap="round" stroke-linejoin="round"/></g><g transform="translate(770.888888888889, 220.38888888888903)" width="18" height="19"><text text-decoration="none" x="0" fill="black" font-size="10pt" font-family="Lato"  y="17">No</text><text text-decoration="none" x="18" fill="#4b4b4b" font-size="10pt" font-family="noto_regular"  y="17"></text></g></g><g id="d02svif55n"><g transform="translate(275 454.95)"><path d="M 25,50 L 25,50 L 25,50 A 25 25 0 0 1 0 25.000000000000004 L 0,25 L 0,25.000000000000004 A 25 25 0 0 1 25 0 L 125,0 L 125,0 L 125,0 A 25 25 0 0 1 150 25 L 150,25 L 150,25 A 25 25 0 0 1 125 50 L 25,50 Z" fill="white" stroke="black" stroke-width="2" stroke-linecap="round" stroke-linejoin="round"/></g><g transform="translate(291, 470.45) rotate(0, 59, 9.5)" width="118" height="19"><text text-decoration="none" x="4.5" fill="black" font-size="10pt" font-family="Lato"  y="17">Search&#160;</text><text text-decoration="none" x="47.5" fill="black" font-size="10pt" font-family="Lato"  y="17">Restaurant</text><text text-decoration="none" x="113.5" fill="#4b4b4b" font-size="10pt" font-family="noto_regular"  y="17"></text></g></g><g id="731vrwnkhh"><mask id="94295" x="411" y="266" width="122.95000000000005" height="227.95" maskUnits="userSpaceOnUse"><rect x="411" y="266" width="122.95000000000005" height="227.95" fill="white" /><rect x="506.45000000000005" y="297.5" width="27" height="25" fill="black" /></mask><g mask="url(#94295)"><path d="M 519.95,280 L 519.95,479.95 L 425,479.95" fill="none" stroke="#000846" stroke-width="2" stroke-linecap="round" stroke-linejoin="round"/><path d="M 425,479.95 L 431.95652173913044,486.44717514124295 M 425,479.95 L 431.95652173913044,473.452824858757 Z" fill="rgb(255,255,255)" stroke="#000846" stroke-width="2" stroke-linecap="round" stroke-linejoin="round"/></g><g transform="translate(509.45000000000005, 300.5)" width="21" height="19"><text text-decoration="none" x="0.5" fill="black" font-size="10pt" font-family="Lato"  y="17">Yes</text><text text-decoration="none" x="20.5" fill="#4b4b4b" font-size="10pt" font-family="noto_regular"  y="17"></text></g></g><g id="2jxecpwnni"><g><path d="M 910.05,115 L 910.05,44.88888888888902 L 715.025,44.88888888888902 L 520,44.88888888888902 L 520,89.95" fill="none" stroke="#000846" stroke-width="2" stroke-linecap="round" stroke-linejoin="round"/><path d="M 520,89.95 L 526.4971751412429,82.99347826086957 M 520,89.95 L 513.5028248587571,82.99347826086957 Z" fill="rgb(255,255,255)" stroke="#000846" stroke-width="2" stroke-linecap="round" stroke-linejoin="round"/></g></g><g id="1rq29d8tnl"><g transform="translate(474.95000000000005 554.959090909091)"><path d="M 25,50 L 25,50 L 25,50 A 25 25 0 0 1 0 25.000000000000004 L 0,25 L 0,25.000000000000004 A 25 25 0 0 1 25 0 L 125,0 L 125,0 L 125,0 A 25 25 0 0 1 150 25 L 150,25 L 150,25 A 25 25 0 0 1 125 50 L 25,50 Z" fill="white" stroke="black" stroke-width="2" stroke-linecap="round" stroke-linejoin="round"/></g><g transform="translate(512.45, 570.459090909091) rotate(0, 37.5, 9.5)" width="75" height="19"><text text-decoration="none" x="3" fill="black" font-size="10pt" font-family="Lato"  y="17">View&#160;</text><text text-decoration="none" x="34" fill="black" font-size="10pt" font-family="Lato"  y="17">Menu&#160;</text><text text-decoration="none" x="72" fill="#4b4b4b" font-size="10pt" font-family="noto_regular"  y="17"></text></g></g><g id="qyx4t15vyz"><mask id="3094b" x="361" y="565.959090909091" width="127.94999999999999" height="32.13181818181806" maskUnits="userSpaceOnUse"><rect x="361" y="565.959090909091" width="127.94999999999999" height="32.13181818181806" fill="white" /><rect x="387.975" y="569.525" width="74" height="25" fill="black" /></mask><g mask="url(#3094b)"><path d="M 375,584.090909090909 L 424.975,584.090909090909 L 424.975,582.025 L 424.975,579.959090909091 L 474.95,579.959090909091" fill="none" stroke="#000846" stroke-width="2" stroke-linecap="round" stroke-linejoin="round"/><path d="M 474.95,579.959090909091 L 467.99347826086955,573.461915767848 M 474.95,579.959090909091 L 467.99347826086955,586.4562660503339 Z" fill="rgb(255,255,255)" stroke="#000846" stroke-width="2" stroke-linecap="round" stroke-linejoin="round"/></g><g transform="translate(390.975, 572.525)" width="68" height="19"><text text-decoration="none" x="3" fill="black" font-size="10pt" font-family="Lato"  y="17">yes&#160;</text><text text-decoration="none" x="26" fill="black" font-size="10pt" font-family="Lato"  y="17">found&#160;</text><text text-decoration="none" x="65" fill="#4b4b4b" font-size="10pt" font-family="noto_regular"  y="17"></text></g></g><g id="bm4ryxs7c2"><g transform="translate(474.95000000000005 631.8090909090909)"><path d="M 25,50 L 25,50 L 25,50 A 25 25 0 0 1 0 25.000000000000004 L 0,25 L 0,25.000000000000004 A 25 25 0 0 1 25 0 L 125,0 L 125,0 L 125,0 A 25 25 0 0 1 150 25 L 150,25 L 150,25 A 25 25 0 0 1 125 50 L 25,50 Z" fill="white" stroke="black" stroke-width="2" stroke-linecap="round" stroke-linejoin="round"/></g><g transform="translate(475.95000000000005, 647.3090909090909) rotate(0, 74, 9.5)" width="148" height="19"><text text-decoration="none" x="5.5" fill="black" font-size="10pt" font-family="Lato"  y="17">Add&#160;</text><text text-decoration="none" x="32.5" fill="black" font-size="10pt" font-family="Lato"  y="17">Menu&#160;&#160;</text><text text-decoration="none" x="73.5" fill="black" font-size="10pt" font-family="Lato"  y="17">Item&#160;</text><text text-decoration="none" x="104.5" fill="black" font-size="10pt" font-family="Lato"  y="17">to&#160;</text><text text-decoration="none" x="120.5" fill="black" font-size="10pt" font-family="Lato"  y="17">Bag</text><text text-decoration="none" x="142.5" fill="#4b4b4b" font-size="10pt" font-family="noto_regular"  y="17"></text></g></g><g id="3c2k52klb0"><g><path d="M 549.95,604.959090909091 L 549.95,631.8090909090909" fill="none" stroke="#000846" stroke-width="2" stroke-linecap="round" stroke-linejoin="round"/><path d="M 549.95,631.8090909090909 L 556.447175141243,624.8525691699605 M 549.95,631.8090909090909 L 543.4528248587571,624.8525691699605 Z" fill="rgb(255,255,255)" stroke="#000846" stroke-width="2" stroke-linecap="round" stroke-linejoin="round"/></g></g><g id="2d2p553jyr"><g transform="translate(475 1039.959090909091)"><path d="M 25,50 L 25,50 L 25,50 A 25 25 0 0 1 0 25.000000000000004 L 0,25 L 0,25.000000000000004 A 25 25 0 0 1 25 0 L 125,0 L 125,0 L 125,0 A 25 25 0 0 1 150 25 L 150,25 L 150,25 A 25 25 0 0 1 125 50 L 25,50 Z" fill="white" stroke="black" stroke-width="2" stroke-linecap="round" stroke-linejoin="round"/></g><g transform="translate(478.5, 1047.459090909091) rotate(0, 71.5, 17.5)" width="143" height="35"><text text-decoration="none" x="6.5" fill="black" font-size="10pt" font-family="Lato"  y="14">User&#160;</text><text text-decoration="none" x="36.5" fill="black" font-size="10pt" font-family="Lato"  y="14">Enter&#160;</text><text text-decoration="none" x="71.5" fill="black" font-size="10pt" font-family="Lato"  y="14">Credit&#160;</text><text text-decoration="none" x="110.5" fill="black" font-size="10pt" font-family="Lato"  y="14">card&#160;</text><text text-decoration="none" x="51.5" fill="black" font-size="10pt" font-family="Lato"  y="36">Details</text><text text-decoration="none" x="91.5" fill="#4b4b4b" font-size="10pt" font-family="noto_regular"  y="36"></text></g></g><g id="19fhkph51t"><g transform="translate(499.95000000000005 1125)"><path d="M 47.53333926200867,0 L 0,42.49999821186066 L 47.53333926200867,84.99999642372131 L 95.06667852401733,42.49999821186066 L 47.53333926200867,0 Z" fill="white" stroke="black" stroke-width="2" stroke-linecap="round" stroke-linejoin="round"/></g><g transform="translate(510.9833392620087, 1149.9999982118607) rotate(0, 36.5, 17.5)" width="73" height="35"><text text-decoration="none" x="3.5" fill="rgb(0, 0, 0)" font-size="10pt" font-family="Lato"  y="14">Valid&#160;</text><text text-decoration="none" x="35.5" fill="rgb(0, 0, 0)" font-size="10pt" font-family="Lato"  y="14">credit&#160;</text><text text-decoration="none" x="16.5" fill="rgb(0, 0, 0)" font-size="10pt" font-family="Lato"  y="36">Card&#160;</text><text text-decoration="none" x="47.5" fill="rgb(0, 0, 0)" font-size="10pt" font-family="Lato"  y="36">?&#160;</text><text text-decoration="none" x="56.5" fill="#4b4b4b" font-size="10pt" font-family="noto_regular"  y="36"></text></g></g><g id="89egqu5y2v"><g><path d="M 550,1089.959090909091 L 550,1107.4795454545456 L 549.975,1107.4795454545456 L 549.95,1107.4795454545456 L 549.95,1125" fill="none" stroke="#000846" stroke-width="2" stroke-linecap="round" stroke-linejoin="round"/><path d="M 549.95,1125 L 556.447175141243,1118.0434782608695 M 549.95,1125 L 543.4528248587571,1118.0434782608695 Z" fill="rgb(255,255,255)" stroke="#000846" stroke-width="2" stroke-linecap="round" stroke-linejoin="round"/></g></g><g id="1bfnkgbm39"><g transform="translate(474.9 1270.05)"><path d="M 25,50 L 25,50 L 25,50 A 25 25 0 0 1 0 25.000000000000004 L 0,25 L 0,25.000000000000004 A 25 25 0 0 1 25 0 L 125,0 L 125,0 L 125,0 A 25 25 0 0 1 150 25 L 150,25 L 150,25 A 25 25 0 0 1 125 50 L 25,50 Z" fill="white" stroke="black" stroke-width="2" stroke-linecap="round" stroke-linejoin="round"/></g><g transform="translate(506.4, 1285.55) rotate(0, 43.5, 9.5)" width="87" height="19"><text text-decoration="none" x="3.5" fill="black" font-size="10pt" font-family="Lato"  y="17">Order&#160;</text><text text-decoration="none" x="41.5" fill="black" font-size="10pt" font-family="Lato"  y="17">Placed&#160;</text><text text-decoration="none" x="83.5" fill="#4b4b4b" font-size="10pt" font-family="noto_regular"  y="17"></text></g></g><g id="2ypbmem0tc"><mask id="943a6" x="535.9" y="1196" width="28.050000000000068" height="88.04999999999995" maskUnits="userSpaceOnUse"><rect x="535.9" y="1196" width="28.050000000000068" height="88.04999999999995" fill="white" /><rect x="529.9249982118608" y="1227.5249982118607" width="40" height="25" fill="black" /></mask><g mask="url(#943a6)"><path d="M 549.95,1210 L 549.95,1240.0249982118607 L 549.925,1240.0249982118607 L 549.9,1240.0249982118607 L 549.9,1270.05" fill="none" stroke="#000846" stroke-width="2" stroke-linecap="round" stroke-linejoin="round"/><path d="M 549.9,1270.05 L 556.3971751412429,1263.0934782608695 M 549.9,1270.05 L 543.4028248587571,1263.0934782608695 Z" fill="rgb(255,255,255)" stroke="#000846" stroke-width="2" stroke-linecap="round" stroke-linejoin="round"/></g><g transform="translate(532.9249982118608, 1230.5249982118607)" width="34" height="19"><text text-decoration="none" x="1.5" fill="black" font-weight="bold" font-size="10pt" font-family="Lato"  y="17">valid</text><text text-decoration="none" x="32.5" fill="#4b4b4b" font-size="10pt" font-family="noto_regular"  y="17"></text></g></g><g id="1e50boy2vk"><g transform="translate(443.70000000000005 435)"><rect x="0" y="0" width="146.37664794921875" height="10.000886917114258" fill="black" stroke="black" stroke-width="NaN" stroke-linecap="round" stroke-linejoin="round"/></g></g><g id="2bqpz7lnfo"><g><path d="M 519.95,280 L 519.95,357.49999940395355 L 519.325,357.49999940395355 L 518.7,357.49999940395355 L 518.7,435" fill="none" stroke="#000846" stroke-width="2" stroke-linecap="round" stroke-linejoin="round"/><path d="M 518.7,435 L 525.197175141243,428.04347826086956 M 518.7,435 L 512.2028248587571,428.04347826086956 Z" fill="rgb(255,255,255)" stroke="#000846" stroke-width="2" stroke-linecap="round" stroke-linejoin="round"/></g></g><g id="talj5pk7d9"><g transform="translate(630 454.95)"><path d="M 25,50 L 25,50 L 25,50 A 25 25 0 0 1 0 25.000000000000004 L 0,25 L 0,25.000000000000004 A 25 25 0 0 1 25 0 L 125,0 L 125,0 L 125,0 A 25 25 0 0 1 150 25 L 150,25 L 150,25 A 25 25 0 0 1 125 50 L 25,50 Z" fill="white" stroke="black" stroke-width="2" stroke-linecap="round" stroke-linejoin="round"/></g><g transform="translate(645.5, 470.45) rotate(0, 59.5, 9.5)" width="119" height="19"><text text-decoration="none" x="4.5" fill="black" font-size="10pt" font-family="Lato"  y="17">Browse&#160;</text><text text-decoration="none" x="51.5" fill="black" font-size="10pt" font-family="Lato"  y="17">restaurant</text><text text-decoration="none" x="114.5" fill="#4b4b4b" font-size="10pt" font-family="noto_regular"  y="17"></text></g></g><g id="r4zqpzo0kd"><g><path d="M 518.7,445 L 518.7,479.95 L 630,479.95" fill="none" stroke="#000846" stroke-width="2" stroke-linecap="round" stroke-linejoin="round"/><path d="M 630,479.95 L 623.0434782608696,473.452824858757 M 630,479.95 L 623.0434782608696,486.44717514124295 Z" fill="rgb(255,255,255)" stroke="#000846" stroke-width="2" stroke-linecap="round" stroke-linejoin="round"/></g></g><g id="2292wg9czf"><g transform="translate(325 559.090909090909)"><path d="M 25,0 L 0,25 L 25,50 L 50,25 L 25,0 Z" fill="white" stroke="black" stroke-width="2" stroke-linecap="round" stroke-linejoin="round"/></g></g><g id="9dvewgeca6"><g><path d="M 350,504.95 L 350,559.090909090909" fill="none" stroke="#000846" stroke-width="2" stroke-linecap="round" stroke-linejoin="round"/><path d="M 350,559.090909090909 L 356.49717514124296,552.1343873517786 M 350,559.090909090909 L 343.50282485875704,552.1343873517786 Z" fill="rgb(255,255,255)" stroke="#000846" stroke-width="2" stroke-linecap="round" stroke-linejoin="round"/></g></g><g id="5cvli3rp3x"><g><path d="M 705,504.95 L 705,579.959090909091 L 624.95,579.959090909091" fill="none" stroke="#000846" stroke-width="2" stroke-linecap="round" stroke-linejoin="round"/><path d="M 624.95,579.959090909091 L 631.9065217391304,586.4562660503339 M 624.95,579.959090909091 L 631.9065217391304,573.461915767848 Z" fill="rgb(255,255,255)" stroke="#000846" stroke-width="2" stroke-linecap="round" stroke-linejoin="round"/></g></g><g id="22wuy7efjr"><g transform="translate(475 706.8090909090909)"><path d="M 25,50 L 25,50 L 25,50 A 25 25 0 0 1 0 25.000000000000004 L 0,25 L 0,25.000000000000004 A 25 25 0 0 1 25 0 L 125,0 L 125,0 L 125,0 A 25 25 0 0 1 150 25 L 150,25 L 150,25 A 25 25 0 0 1 125 50 L 25,50 Z" fill="white" stroke="black" stroke-width="2" stroke-linecap="round" stroke-linejoin="round"/></g><g transform="translate(477.5, 722.3090909090909) rotate(0, 72.5, 9.5)" width="145" height="19"><text text-decoration="none" x="7.5" fill="black" font-size="10pt" font-family="Lato"  y="17">View&#160;</text><text text-decoration="none" x="38.5" fill="black" font-size="10pt" font-family="Lato"  y="17">Bag/&#160;</text><text text-decoration="none" x="68.5" fill="black" font-size="10pt" font-family="Lato"  y="17">Update&#160;</text><text text-decoration="none" x="115.5" fill="black" font-size="10pt" font-family="Lato"  y="17">Bag</text><text text-decoration="none" x="137.5" fill="#4b4b4b" font-size="10pt" font-family="noto_regular"  y="17"></text></g></g><g id="ddq4vuttc3"><g><path d="M 549.95,681.8090909090909 L 549.95,694.3090909090909 L 549.975,694.3090909090909 L 550,694.3090909090909 L 550,706.8090909090909" fill="none" stroke="#000846" stroke-width="2" stroke-linecap="round" stroke-linejoin="round"/><path d="M 550,706.8090909090909 L 556.4971751412429,699.8525691699605 M 550,706.8090909090909 L 543.5028248587571,699.8525691699605 Z" fill="rgb(255,255,255)" stroke="#000846" stroke-width="2" stroke-linecap="round" stroke-linejoin="round"/></g></g><g id="1h9fc4foiu"><g transform="translate(514.9181818181818 795)"><path d="M 34.95842218399048,0 L 0,30.003327131271362 L 34.95842218399048,60.006654262542725 L 69.91684436798096,30.003327131271362 L 34.95842218399048,0 Z" fill="white" stroke="black" stroke-width="2" stroke-linecap="round" stroke-linejoin="round"/></g><g transform="translate(519.3766040021723, 807.5033271312714) rotate(0, 30.5, 17.5)" width="61" height="35"><text text-decoration="none" x="1" fill="rgb(0, 0, 0)" font-size="10pt" font-family="Lato"  y="14">Add&#160;</text><text text-decoration="none" x="28" fill="rgb(0, 0, 0)" font-size="10pt" font-family="Lato"  y="14">More&#160;</text><text text-decoration="none" x="26" fill="rgb(0, 0, 0)" font-size="10pt" font-family="Lato"  y="36">?&#160;</text><text text-decoration="none" x="35" fill="#4b4b4b" font-size="10pt" font-family="noto_regular"  y="36"></text></g></g><g id="1olljndjcq"><g><path d="M 550,756.8090909090909 L 550,775.9045454545454 L 549.959090909091,775.9045454545454 L 549.9181818181818,775.9045454545454 L 549.9181818181818,795" fill="none" stroke="#000846" stroke-width="2" stroke-linecap="round" stroke-linejoin="round"/><path d="M 549.9181818181818,795 L 556.4153569594247,788.0434782608696 M 549.9181818181818,795 L 543.4210066769389,788.0434782608696 Z" fill="rgb(255,255,255)" stroke="#000846" stroke-width="2" stroke-linecap="round" stroke-linejoin="round"/></g></g><g id="204vzir07v"><mask id="d08b2" x="336" y="595.090909090909" width="192.91818181818178" height="243.909090909091" maskUnits="userSpaceOnUse"><rect x="336" y="595.090909090909" width="192.91818181818178" height="243.909090909091" fill="white" /><rect x="389.92031793343267" y="812.5" width="96" height="25" fill="black" /></mask><g mask="url(#d08b2)"><path d="M 514.9181818181818,825 L 350,825 L 350,609.090909090909" fill="none" stroke="#000846" stroke-width="2" stroke-linecap="round" stroke-linejoin="round"/><path d="M 350,609.090909090909 L 343.50282485875704,616.0474308300394 M 350,609.090909090909 L 356.49717514124296,616.0474308300394 Z" fill="rgb(255,255,255)" stroke="#000846" stroke-width="2" stroke-linecap="round" stroke-linejoin="round"/></g><g transform="translate(392.92031793343267, 815.5)" width="90" height="19"><text text-decoration="none" x="1" fill="black" font-size="10pt" font-family="Lato"  y="17">Yes&#160;</text><text text-decoration="none" x="24" fill="black" font-size="10pt" font-family="Lato"  y="17">Add&#160;</text><text text-decoration="none" x="51" fill="black" font-size="10pt" font-family="Lato"  y="17">More&#160;&#160;</text><text text-decoration="none" x="89" fill="#4b4b4b" font-size="10pt" font-family="noto_regular"  y="17"></text></g></g><g id="xyafzg6tcs"><g transform="translate(660 795.8590909090909)"><path d="M 25,50 L 25,50 L 25,50 A 25 25 0 0 1 0 25.000000000000004 L 0,25 L 0,25.000000000000004 A 25 25 0 0 1 25 0 L 125,0 L 125,0 L 125,0 A 25 25 0 0 1 150 25 L 150,25 L 150,25 A 25 25 0 0 1 125 50 L 25,50 Z" fill="white" stroke="black" stroke-width="2" stroke-linecap="round" stroke-linejoin="round"/></g><g transform="translate(663.5, 811.3590909090909) rotate(0, 71.5, 9.5)" width="143" height="19"><text text-decoration="none" x="6.5" fill="black" font-size="10pt" font-family="Lato"  y="17">Remove&#160;</text><text text-decoration="none" x="58.5" fill="black" font-size="10pt" font-family="Lato"  y="17">Item&#160;</text><text text-decoration="none" x="89.5" fill="black" font-size="10pt" font-family="Lato"  y="17">/&#160;</text><text text-decoration="none" x="97.5" fill="black" font-size="10pt" font-family="Lato"  y="17">Cancel</text><text text-decoration="none" x="136.5" fill="#4b4b4b" font-size="10pt" font-family="noto_regular"  y="17"></text></g></g><g id="27ehe4pbhn"><mask id="c7388" x="570.9181818181818" y="806.8590909090909" width="103.08181818181822" height="32.140909090909076" maskUnits="userSpaceOnUse"><rect x="570.9181818181818" y="806.8590909090909" width="103.08181818181822" height="32.140909090909076" fill="white" /><rect x="602.9181818181818" y="812.5" width="24" height="25" fill="black" /><rect x="610.4175130930814" y="810.387967638536" width="24" height="25" fill="black" /></mask><g mask="url(#c7388)"><path d="M 584.9181818181818,825 L 622.4175130930814,825 L 622.4175130930814,822.9295454545454 L 622.4175130930814,820.8590909090909 L 660,820.8590909090909" fill="none" stroke="#000846" stroke-width="2" stroke-linecap="round" stroke-linejoin="round"/><path d="M 660,820.8590909090909 L 653.0434782608696,814.361915767848 M 660,820.8590909090909 L 653.0434782608696,827.3562660503338 Z" fill="rgb(255,255,255)" stroke="#000846" stroke-width="2" stroke-linecap="round" stroke-linejoin="round"/></g><g transform="translate(605.9181818181818, 815.5)" width="18" height="19"><text text-decoration="none" x="0" fill="black" font-size="10pt" font-family="Lato"  y="17">No</text><text text-decoration="none" x="18" fill="#4b4b4b" font-size="10pt" font-family="noto_regular"  y="17"></text></g><g transform="translate(613.4175130930814, 813.387967638536)" width="18" height="19"><text text-decoration="none" x="0" fill="black" font-size="10pt" font-family="Lato"  y="17">No</text><text text-decoration="none" x="18" fill="#4b4b4b" font-size="10pt" font-family="noto_regular"  y="17"></text></g></g><g id="1dawb8t0fn"><g><path d="M 519.95,280 L 519.95,329.95" fill="none" stroke="#000846" stroke-width="2" stroke-linecap="round" stroke-linejoin="round"/><path d="M 519.95,329.95 L 526.447175141243,322.99347826086955 M 519.95,329.95 L 513.4528248587571,322.99347826086955 Z" fill="rgb(255,255,255)" stroke="#000846" stroke-width="2" stroke-linecap="round" stroke-linejoin="round"/></g></g><g id="irovq7tglc"><g transform="translate(474.95000000000005 969.0409090909092)"><path d="M 22.55570888519287,45.11141777038574 L 22.55570888519287,45.11141777038574 L 22.55570888519287,45.11141777038574 A 22.55570888519287 22.55570888519287 0 0 1 0 22.555708885192875 L 0,22.55570888519287 L 0,22.555708885192875 A 22.55570888519287 22.55570888519287 0 0 1 22.55570888519287 0 L 127.44531035423279,0 L 127.44531035423279,0 L 127.44531035423279,0 A 22.55570888519287 22.55570888519287 0 0 1 150.00101923942566 22.55570888519287 L 150.00101923942566,22.55570888519287 L 150.00101923942566,22.55570888519287 A 22.55570888519287 22.55570888519287 0 0 1 127.44531035423279 45.11141777038574 L 22.55570888519287,45.11141777038574 Z" fill="white" stroke="black" stroke-width="2" stroke-linecap="round" stroke-linejoin="round"/></g><g transform="translate(521.4505096197129, 982.096617976102) rotate(0, 28.5, 9.5)" width="57" height="19"><text text-decoration="none" x="1.5" fill="black" font-size="10pt" font-family="Lato"  y="17">Payment</text><text text-decoration="none" x="55.5" fill="#4b4b4b" font-size="10pt" font-family="noto_regular"  y="17"></text></g></g><g id="1cfflodhok"><g><path d="M 549.9181818181818,855 L 549.9181818181818,907.475 L 549.9340909090909,907.475 L 549.95,907.475 L 549.95,969.0409090909092" fill="none" stroke="#000846" stroke-width="2" stroke-linecap="round" stroke-linejoin="round"/><path d="M 549.95,969.0409090909092 L 556.447175141243,962.0843873517788 M 549.95,969.0409090909092 L 543.4528248587571,962.0843873517788 Z" fill="rgb(255,255,255)" stroke="#000846" stroke-width="2" stroke-linecap="round" stroke-linejoin="round"/></g></g><g id="22egv215vf"><g><path d="M 549.95,1014.0409090909092 L 549.95,1027.0557088851929 L 549.975,1027.0557088851929 L 550,1027.0557088851929 L 550,1039.959090909091" fill="none" stroke="#000846" stroke-width="2" stroke-linecap="round" stroke-linejoin="round"/><path d="M 550,1039.959090909091 L 556.4971751412429,1033.0025691699605 M 550,1039.959090909091 L 543.5028248587571,1033.0025691699605 Z" fill="rgb(255,255,255)" stroke="#000846" stroke-width="2" stroke-linecap="round" stroke-linejoin="round"/></g></g><g id="1ez5z808yw"><g transform="translate(260 1270)"><path d="M 25.00055432319641,50.00110864639282 L 25.000554323196408,50.00110864639282 L 25.000554323196408,50.00110864639282 A 25.00055432319641 25.00055432319641 0 0 1 -3.552713678800501e-15 25.00055432319642 L -3.552713678800501e-15,25.000554323196408 L -3.552713678800501e-15,25.000554323196408 A 25.00055432319641 25.00055432319641 0 0 1 25.000554323196408 0 L 140.0940239429474,0 L 140.0940239429474,-3.552713678800501e-15 L 140.0940239429474,-3.552713678800501e-15 A 25.00055432319641 25.00055432319641 0 0 1 165.0945782661438 25.000554323196408 L 165.0945782661438,25.000554323196415 L 165.0945782661438,25.000554323196415 A 25.00055432319641 25.00055432319641 0 0 1 140.0940239429474 50.00110864639282 L 25.00055432319641,50.00110864639282 Z" fill="white" stroke="black" stroke-width="2" stroke-linecap="round" stroke-linejoin="round"/></g><g transform="translate(281.5472891330719, 1285.5005543231964) rotate(0, 61, 9.5)" width="122" height="19"><text text-decoration="none" x="4" fill="black" font-size="10pt" font-family="Lato"  y="17">Send&#160;</text><text text-decoration="none" x="37" fill="black" font-size="10pt" font-family="Lato"  y="17">confirmation&#160;</text><text text-decoration="none" x="118" fill="#4b4b4b" font-size="10pt" font-family="noto_regular"  y="17"></text></g></g><g id="m9j8negzc3"><g><path d="M 474.9,1295.05 L 449.9972891330719,1295.05 L 449.9972891330719,1295.025 L 449.9972891330719,1295 L 425,1295" fill="none" stroke="#000846" stroke-width="2" stroke-linecap="round" stroke-linejoin="round"/><path d="M 425,1295 L 431.95652173913044,1301.497175141243 M 425,1295 L 431.95652173913044,1288.502824858757 Z" fill="rgb(255,255,255)" stroke="#000846" stroke-width="2" stroke-linecap="round" stroke-linejoin="round"/></g></g><g id="1m46lg7zq8"><g transform="translate(475 1360)"><path d="M 25.00016987323761,50.00033974647522 L 25.00016987323761,50.00033974647522 L 25.00016987323761,50.00033974647522 A 25.00016987323761 25.00016987323761 0 0 1 0 25.000169873237613 L 0,25.00016987323761 L 0,25.000169873237613 A 25.00016987323761 25.00016987323761 0 0 1 25.00016987323761 0 L 125.00084936618805,0 L 125.00084936618805,0 L 125.00084936618805,0 A 25.00016987323761 25.00016987323761 0 0 1 150.00101923942566 25.00016987323761 L 150.00101923942566,25.00016987323761 L 150.00101923942566,25.00016987323761 A 25.00016987323761 25.00016987323761 0 0 1 125.00084936618805 50.00033974647522 L 25.00016987323761,50.00033974647522 Z" fill="white" stroke="black" stroke-width="2" stroke-linecap="round" stroke-linejoin="round"/></g><g transform="translate(491.00050961971283, 1375.5001698732376) rotate(0, 59, 9.5)" width="118" height="19"><text text-decoration="none" x="5" fill="black" font-size="10pt" font-family="Lato"  y="17">Close&#160;&#160;</text><text text-decoration="none" x="43" fill="black" font-size="10pt" font-family="Lato"  y="17">Transaction</text><text text-decoration="none" x="113" fill="#4b4b4b" font-size="10pt" font-family="noto_regular"  y="17"></text></g></g><g id="2fita0tha2"><g><path d="M 549.9,1320.05 L 549.9,1340.025 L 549.95,1340.025 L 550,1340.025 L 550,1360" fill="none" stroke="#000846" stroke-width="2" stroke-linecap="round" stroke-linejoin="round"/><path d="M 550,1360 L 556.4971751412429,1353.0434782608695 M 550,1360 L 543.5028248587571,1353.0434782608695 Z" fill="rgb(255,255,255)" stroke="#000846" stroke-width="2" stroke-linecap="round" stroke-linejoin="round"/></g></g><g id="8qgq2wy8s7"><g transform="translate(535 1460)"><path d="L 28.7,14.4 A 14.35 14.35 0 1 0 28.6999928250006 14.414349997608339 M 26.5475,14.4 L 26.5475,14.4 A 12.1975 12.1975 0 1 1 26.54749390125051 14.38780250203291" fill="black" stroke="#3498db" stroke-width="2" stroke-linecap="round" stroke-linejoin="round"/><ellipse cx="14.35" cy="14.4" rx="7.175" ry="7.2250000000000005" fill="black" stroke="#3498db" stroke-width="2" stroke-linecap="round" stroke-linejoin="round"/><path d="M 26.5475,14.4 L 26.5475,14.4 A 12.1975 12.1975 0 1 0 26.54749390125051 14.412197497967087 M 21.525,14.4 L 21.525,14.4 A 7.175 7.175 0 1 1 21.5249964125003 14.39282500119583" fill="rgba(255,255,255,0.01)" stroke="rgba(255,255,255,0.01)" stroke-width="2" stroke-linecap="round" stroke-linejoin="round"/></g></g><g id="7hpb1kr865"><g><path d="M 550,1410 L 550,1460" fill="none" stroke="#000846" stroke-width="2" stroke-linecap="round" stroke-linejoin="round"/><path d="M 550,1460 L 556.4971751412429,1453.0434782608695 M 550,1460 L 543.5028248587571,1453.0434782608695 Z" fill="rgb(255,255,255)" stroke="#000846" stroke-width="2" stroke-linecap="round" stroke-linejoin="round"/></g></g><g id="2jqs6bs22y"><g transform="translate(800.1 1235)"><path d="M 25.00033974647522,50.00067949295044 L 25.000339746475223,50.00067949295044 L 25.000339746475223,50.00067949295044 A 25.00033974647522 25.00033974647522 0 0 1 3.552713678800501e-15 25.00033974647522 L 1.0658141036401503e-14,25.000339746475227 L 1.0658141036401503e-14,25.000339746475227 A 25.00033974647522 25.00033974647522 0 0 1 25.00033974647523 3.552713678800501e-15 L 150.00203251838684,0 L 150.00203251838684,3.552713678800501e-15 L 150.00203251838684,3.552713678800501e-15 A 25.00033974647522 25.00033974647522 0 0 1 175.00237226486206 25.000339746475223 L 175.00237226486206,25.000339746475216 L 175.00237226486206,25.000339746475216 A 25.00033974647522 25.00033974647522 0 0 1 150.00203251838684 50.00067949295044 L 25.00033974647522,50.00067949295044 Z" fill="white" stroke="black" stroke-width="2" stroke-linecap="round" stroke-linejoin="round"/></g><g transform="translate(828.101186132431, 1242.5003397464752) rotate(0, 59.5, 17.5)" width="119" height="35"><text text-decoration="none" x="5.5" fill="black" font-size="10pt" font-family="Lato"  y="14">Invalid&#160;</text><text text-decoration="none" x="48.5" fill="black" font-size="10pt" font-family="Lato"  y="14">Credit&#160;</text><text text-decoration="none" x="87.5" fill="black" font-size="10pt" font-family="Lato"  y="14">card&#160;</text><text text-decoration="none" x="33.5" fill="black" font-size="10pt" font-family="Lato"  y="36">Message</text><text text-decoration="none" x="85.5" fill="#4b4b4b" font-size="10pt" font-family="noto_regular"  y="36"></text></g></g><g id="2984q6mcg1"><mask id="abfeb" x="190.89898989899012" y="465.95" width="148.10101010100988" height="132.14090909090902" maskUnits="userSpaceOnUse"><rect x="190.89898989899012" y="465.95" width="148.10101010100988" height="132.14090909090902" fill="white" /><rect x="181.22248840901568" y="528.4690489761316" width="87" height="25" fill="black" /></mask><g mask="url(#abfeb)"><path d="M 325,584.090909090909 L 204.89898989899012,532.4444444444445 L 275,479.95" fill="none" stroke="#000846" stroke-width="2" stroke-linecap="round" stroke-linejoin="round"/><path d="M 275,479.95 L 268.04914404920527,473.4467637999008 M 275,479.95 L 268.037817757699,486.44110914620666 Z" fill="rgb(255,255,255)" stroke="#000846" stroke-width="2" stroke-linecap="round" stroke-linejoin="round"/></g><g transform="translate(184.22248840901568, 531.4690489761316)" width="81" height="19"><text text-decoration="none" x="2" fill="black" font-size="10pt" font-family="Lato"  y="17">Not&#160;</text><text text-decoration="none" x="28" fill="black" font-size="10pt" font-family="Lato"  y="17">Found&#160;</text><text text-decoration="none" x="70" fill="black" font-size="10pt" font-family="Lato"  y="17">?&#160;</text><text text-decoration="none" x="79" fill="#4b4b4b" font-size="10pt" font-family="noto_regular"  y="17"></text></g></g><g id="4gx3u4qs12"><mask id="fee53" x="580.95" y="1151" width="323.15" height="98" maskUnits="userSpaceOnUse"><rect x="580.95" y="1151" width="323.15" height="98" fill="white" /><rect x="679.0250000000001" y="1187.5" width="127" height="25" fill="black" /></mask><g mask="url(#fee53)"><path d="M 594.95,1165 L 890.1,1235" fill="none" stroke="#000846" stroke-width="2" stroke-linecap="round" stroke-linejoin="round"/><path d="M 890.1,1235 L 896.5872306334245,1228.0342036900481 M 890.1,1235 L 883.5928936104594,1228.0527670286524 Z" fill="rgb(255,255,255)" stroke="#000846" stroke-width="2" stroke-linecap="round" stroke-linejoin="round"/></g><g transform="translate(682.0250000000001, 1190.5)" width="121" height="19"><text text-decoration="none" x="5.5" fill="black" font-size="10pt" font-family="Lato"  y="17">Invalid&#160;</text><text text-decoration="none" x="48.5" fill="black" font-size="10pt" font-family="Lato"  y="17">Credit&#160;</text><text text-decoration="none" x="87.5" fill="black" font-size="10pt" font-family="Lato"  y="17">Card</text><text text-decoration="none" x="115.5" fill="#4b4b4b" font-size="10pt" font-family="noto_regular"  y="17"></text></g></g><g id="a62vanu8ip"><g><path d="M 890.1,1285 L 890.1,1385 L 625,1385" fill="none" stroke="#000846" stroke-width="2" stroke-linecap="round" stroke-linejoin="round"/><path d="M 625,1385 L 631.9565217391304,1391.497175141243 M 625,1385 L 631.9565217391304,1378.502824858757 Z" fill="rgb(255,255,255)" stroke="#000846" stroke-width="2" stroke-linecap="round" stroke-linejoin="round"/></g></g><g id="1z9fc1zui8"><g transform="translate(474.95000000000005 889.0909090909091)"><path d="M 25,50 L 25,50 L 25,50 A 25 25 0 0 1 0 25.000000000000004 L 0,25 L 0,25.000000000000004 A 25 25 0 0 1 25 0 L 125,0 L 125,0 L 125,0 A 25 25 0 0 1 150 25 L 150,25 L 150,25 A 25 25 0 0 1 125 50 L 25,50 Z" fill="white" stroke="black" stroke-width="2" stroke-linecap="round" stroke-linejoin="round"/></g><g transform="translate(519.45, 904.5909090909091) rotate(0, 30.5, 9.5)" width="61" height="19"><text text-decoration="none" x="2" fill="black" font-size="10pt" font-family="Lato"  y="17">Checkout</text><text text-decoration="none" x="59" fill="#4b4b4b" font-size="10pt" font-family="noto_regular"  y="17"></text></g></g><g id="ka4ytiez03"><g><path d="M 549.9181818181818,855 L 549.9181818181818,874.5487816767259 L 549.9340909090909,874.5487816767259 L 549.95,874.5487816767259 L 549.95,889.0909090909091" fill="none" stroke="#000846" stroke-width="2" stroke-linecap="round" stroke-linejoin="round"/><path d="M 549.95,889.0909090909091 L 556.447175141243,882.1343873517787 M 549.95,889.0909090909091 L 543.4528248587571,882.1343873517787 Z" fill="rgb(255,255,255)" stroke="#000846" stroke-width="2" stroke-linecap="round" stroke-linejoin="round"/></g></g><g id="1c4td5eh72"><g><path d="M 345,1320 L 345,1475 L 535,1475" fill="none" stroke="#000846" stroke-width="2" stroke-linecap="round" stroke-linejoin="round"/><path d="M 535,1475 L 528.0434782608696,1468.502824858757 M 535,1475 L 528.0434782608696,1481.497175141243 Z" fill="rgb(255,255,255)" stroke="#000846" stroke-width="2" stroke-linecap="round" stroke-linejoin="round"/></g></g><g id="1mwpevtnah"><g transform="translate(445 335)"><path d="M 25,50 L 25,50 L 25,50 A 25 25 0 0 1 0 25.000000000000004 L 0,25 L 0,25.000000000000004 A 25 25 0 0 1 25 0 L 125,0 L 125,0 L 125,0 A 25 25 0 0 1 150 25 L 150,25 L 150,25 A 25 25 0 0 1 125 50 L 25,50 Z" fill="white" stroke="black" stroke-width="2" stroke-linecap="round" stroke-linejoin="round"/></g><g transform="translate(485, 350.5) rotate(0, 35, 9.5)" width="70" height="19"><text text-decoration="none" x="2" fill="black" font-size="10pt" font-family="Lato"  y="17">HomePage</text><text text-decoration="none" x="68" fill="#4b4b4b" font-size="10pt" font-family="noto_regular"  y="17"></text></g></g><g id="19qqa4eer1"><g><path d="M 810,820.8590909090909 L 830,820.8590909090909 L 830,590.4295454545454 L 830,360 L 595,360" fill="none" stroke="#000846" stroke-width="2" stroke-linecap="round" stroke-linejoin="round"/><path d="M 595,360 L 601.9565217391304,366.49717514124296 M 595,360 L 601.9565217391304,353.50282485875704 Z" fill="rgb(255,255,255)" stroke="#000846" stroke-width="2" stroke-linecap="round" stroke-linejoin="round"/></g></g></svg>