<svg xmlns="http://www.w3.org/2000/svg" xmlns:svg="http://www.w3.org/2000/svg" xmlns:xlink="http://www.w3.org/1999/xlink" version="1.0" height="1030pt" width="1305pt" viewBox="192 67.00000000000001 1313 1036" ><defs><style type="text/css">
            @font-face {
                font-family: 'lt_regular';
                src: url('https://app.creately.com/diagram/assets/fonts/lato/lt-regular-webfont.woff2') format('woff2'),
                    url('https://app.creately.com/diagram/assets/fonts/lato/lt-regular-webfont.woff') format('woff');
                font-weight: normal;
                font-style: normal;
            }
            @font-face {
                font-family: 'noto_regular';
                src: url('https://app.creately.com/diagram/assets/fonts/noto/noto-regular.woff') format('woff'),
                     url('https://app.creately.com/diagram/assets/fonts/noto/noto-regular.woff2') format('woff2');
                font-weight: normal;
                font-style: normal;
            }
        p {
            margin: 0;
        }
        </style></defs><defs><style>
            span{ display: inline-block; }
        </style></defs><g id="0JCIjMJZDDO"><g transform="translate(590 70.00000000000001)"><rect x="0" y="0" width="360" height="109.99999999999999" fill="rgba(255,255,255,0.01)" stroke="rgba(255,255,255,0.01)"/></g><g transform="translate(600, 80.00000000000001) rotate(0, 0, 0)" width="289" height="26"><text text-decoration="none" x="0" fill="#4b4b4b" font-weight="bold" font-size="14pt" font-family="lt_regular"  y="20">Customer&#160;</text><text text-decoration="none" x="88" fill="#4b4b4b" font-weight="bold" font-size="14pt" font-family="lt_regular"  y="20">and&#160;</text><text text-decoration="none" x="124" fill="#4b4b4b" font-weight="bold" font-size="14pt" font-family="lt_regular"  y="20">Order&#160;</text><text text-decoration="none" x="0" fill="#4b4b4b" font-weight="bold" font-size="14pt" font-family="lt_regular"  y="46">Management..</text><text text-decoration="none" x="119" fill="#4b4b4b" font-size="10pt" font-family="noto_regular"  y="46"></text></g></g><g id="B6BEUVrf9Q0"><g transform="translate(300 150)"><rect x="0" y="0" width="350.00000000000006" height="150" rx="2" ry="2" fill="rgb(255,255,255)" stroke="#38b6b6" stroke-width="2" stroke-linecap="round" stroke-linejoin="round"/><path d="M 0,50 L 350.00000000000006,50" fill="rgb(255,255,255)" stroke="#38b6b6" stroke-width="2" stroke-linecap="round" stroke-linejoin="round"/></g><g transform="translate(422.5, 155) rotate(0, 52.5, 0)" width="105" height="40"><text text-decoration="none" x="0" fill="#000000" font-size="11pt" font-family="lt_regular"  y="16">&#x3C;&#x3C;StereoType&#x3E;&#x3E;</text><text text-decoration="none" x="52.5" fill="#000000" font-size="10pt" font-family="lt_regular"  y="34"></text><text text-decoration="none" x="21" fill="#000000" font-size="11pt" font-family="lt_regular"  y="54">Customer</text><text text-decoration="none" x="84" fill="#4b4b4b" font-size="10pt" font-family="noto_regular"  y="54"></text></g><g transform="translate(310, 205) rotate(0, 0, 0)" width="299" height="40"><text text-decoration="none" x="0" fill="#000000" font-size="11pt" font-family="lt_regular"  y="16">+&#160;</text><text text-decoration="none" x="13" fill="#000000" font-size="11pt" font-family="lt_regular"  y="16">Customer&#160;</text><text text-decoration="none" x="80" fill="#000000" font-size="11pt" font-family="lt_regular"  y="16">Name&#160;</text><text text-decoration="none" x="122" fill="#000000" font-size="11pt" font-family="lt_regular"  y="16">:&#160;</text><text text-decoration="none" x="130" fill="#000000" font-size="11pt" font-family="lt_regular"  y="16">String+&#160;</text><text text-decoration="none" x="181" fill="#000000" font-size="11pt" font-family="lt_regular"  y="16">Attribute&#160;</text><text text-decoration="none" x="243" fill="#000000" font-size="11pt" font-family="lt_regular"  y="16">2&#160;</text><text text-decoration="none" x="256" fill="#000000" font-size="11pt" font-family="lt_regular"  y="16">:&#160;</text><text text-decoration="none" x="264" fill="#000000" font-size="11pt" font-family="lt_regular"  y="16">Type</text><text text-decoration="none" x="297" fill="#000000" font-size="11pt" font-family="lt_regular"  y="16"></text><text text-decoration="none" x="0" fill="#000000" font-size="11pt" font-family="lt_regular"  y="36">-&#160;</text><text text-decoration="none" x="10" fill="#000000" font-size="11pt" font-family="lt_regular"  y="36">Contact&#160;</text><text text-decoration="none" x="65" fill="#000000" font-size="11pt" font-family="lt_regular"  y="36">Number:&#160;</text><text text-decoration="none" x="125" fill="#000000" font-size="11pt" font-family="lt_regular"  y="36">Number-&#160;</text><text text-decoration="none" x="187" fill="#000000" font-size="11pt" font-family="lt_regular"  y="36">Attribute&#160;</text><text text-decoration="none" x="249" fill="#000000" font-size="11pt" font-family="lt_regular"  y="36">4&#160;</text><text text-decoration="none" x="262" fill="#000000" font-size="11pt" font-family="lt_regular"  y="36">:&#160;</text><text text-decoration="none" x="0" fill="#000000" font-size="11pt" font-family="lt_regular"  y="56">Type</text><text text-decoration="none" x="33" fill="#4b4b4b" font-size="10pt" font-family="noto_regular"  y="56"></text></g></g><g id="w6ofbhTEFo5"><g transform="translate(800 150)"><rect x="0" y="0" width="200" height="150" rx="2" ry="2" fill="rgb(255,255,255)" stroke="#38b6b6" stroke-width="2" stroke-linecap="round" stroke-linejoin="round"/><path d="M 0,50 L 200,50" fill="rgb(255,255,255)" stroke="#38b6b6" stroke-width="2" stroke-linecap="round" stroke-linejoin="round"/></g><g transform="translate(810, 155) rotate(0, 0, 0)" width="105" height="40"><text text-decoration="none" x="0" fill="#000000" font-size="11pt" font-family="lt_regular"  y="16">&#x3C;&#x3C;StereoType&#x3E;&#x3E;</text><text text-decoration="none" x="0" fill="#000000" font-size="10pt" font-family="lt_regular"  y="34"></text><text text-decoration="none" x="0" fill="#000000" font-size="11pt" font-family="lt_regular"  y="54">Orders</text><text text-decoration="none" x="44" fill="#4b4b4b" font-size="10pt" font-family="noto_regular"  y="54"></text></g><g transform="translate(810, 205) rotate(0, 0, 0)" width="144" height="80"><text text-decoration="none" x="0" fill="#000000" font-size="11pt" font-family="lt_regular"  y="16">+&#160;</text><text text-decoration="none" x="13" fill="#000000" font-size="11pt" font-family="lt_regular"  y="16">Menu&#160;</text><text text-decoration="none" x="55" fill="#000000" font-size="11pt" font-family="lt_regular"  y="16">Item&#160;</text><text text-decoration="none" x="88" fill="#000000" font-size="11pt" font-family="lt_regular"  y="16">:&#160;</text><text text-decoration="none" x="0" fill="#000000" font-size="11pt" font-family="lt_regular"  y="36">number</text><text text-decoration="none" x="49" fill="#000000" font-size="11pt" font-family="lt_regular"  y="36"></text><text text-decoration="none" x="0" fill="#000000" font-size="11pt" font-family="lt_regular"  y="56">+&#160;</text><text text-decoration="none" x="13" fill="#000000" font-size="11pt" font-family="lt_regular"  y="56">Quantity&#160;</text><text text-decoration="none" x="74" fill="#000000" font-size="11pt" font-family="lt_regular"  y="56">:&#160;</text><text text-decoration="none" x="82" fill="#000000" font-size="11pt" font-family="lt_regular"  y="56">Number</text><text text-decoration="none" x="134" fill="#000000" font-size="11pt" font-family="lt_regular"  y="56"></text><text text-decoration="none" x="0" fill="#000000" font-size="11pt" font-family="lt_regular"  y="76">-&#160;</text><text text-decoration="none" x="10" fill="#000000" font-size="11pt" font-family="lt_regular"  y="76">Customer&#160;</text><text text-decoration="none" x="77" fill="#000000" font-size="11pt" font-family="lt_regular"  y="76">:&#160;</text><text text-decoration="none" x="85" fill="#000000" font-size="11pt" font-family="lt_regular"  y="76">String</text><text text-decoration="none" x="123" fill="#000000" font-size="11pt" font-family="lt_regular"  y="76"></text><text text-decoration="none" x="0" fill="#000000" font-size="11pt" font-family="lt_regular"  y="96">-Table&#160;</text><text text-decoration="none" x="46" fill="#000000" font-size="11pt" font-family="lt_regular"  y="96">:&#160;</text><text text-decoration="none" x="54" fill="#000000" font-size="11pt" font-family="lt_regular"  y="96">number</text><text text-decoration="none" x="103" fill="#4b4b4b" font-size="10pt" font-family="noto_regular"  y="96"></text></g></g><g id="6SwUzG6CSYU"><g transform="translate(1150 250)"><rect x="0" y="0" width="150" height="150" rx="2" ry="2" fill="rgb(255,255,255)" stroke="#38b6b6" stroke-width="2" stroke-linecap="round" stroke-linejoin="round"/><path d="M 0,50 L 150,50" fill="rgb(255,255,255)" stroke="#38b6b6" stroke-width="2" stroke-linecap="round" stroke-linejoin="round"/></g><g transform="translate(1160, 255) rotate(0, 0, 0)" width="105" height="40"><text text-decoration="none" x="0" fill="#000000" font-size="11pt" font-family="lt_regular"  y="16">&#x3C;&#x3C;StereoType&#x3E;&#x3E;</text><text text-decoration="none" x="0" fill="#000000" font-size="10pt" font-family="lt_regular"  y="34"></text><text text-decoration="none" x="0" fill="#000000" font-size="11pt" font-family="lt_regular"  y="54">Reservations</text><text text-decoration="none" x="83" fill="#4b4b4b" font-size="10pt" font-family="noto_regular"  y="54"></text></g><g transform="translate(1160, 305) rotate(0, 0, 0)" width="129" height="60"><text text-decoration="none" x="0" fill="#000000" font-size="11pt" font-family="lt_regular"  y="16">+&#160;</text><text text-decoration="none" x="13" fill="#000000" font-size="11pt" font-family="lt_regular"  y="16">Customer&#160;&#160;</text><text text-decoration="none" x="84" fill="#000000" font-size="11pt" font-family="lt_regular"  y="16">:&#160;</text><text text-decoration="none" x="0" fill="#000000" font-size="11pt" font-family="lt_regular"  y="36">String</text><text text-decoration="none" x="38" fill="#000000" font-size="11pt" font-family="lt_regular"  y="36"></text><text text-decoration="none" x="0" fill="#000000" font-size="11pt" font-family="lt_regular"  y="56">+&#160;</text><text text-decoration="none" x="13" fill="#000000" font-size="11pt" font-family="lt_regular"  y="56">Table&#160;&#160;</text><text text-decoration="none" x="57" fill="#000000" font-size="11pt" font-family="lt_regular"  y="56">:&#160;</text><text text-decoration="none" x="65" fill="#000000" font-size="11pt" font-family="lt_regular"  y="56">number</text><text text-decoration="none" x="114" fill="#000000" font-size="11pt" font-family="lt_regular"  y="56"></text><text text-decoration="none" x="0" fill="#000000" font-size="11pt" font-family="lt_regular"  y="76">-&#160;</text><text text-decoration="none" x="10" fill="#000000" font-size="11pt" font-family="lt_regular"  y="76">Time:&#160;</text><text text-decoration="none" x="51" fill="#000000" font-size="11pt" font-family="lt_regular"  y="76">Date&#160;</text><text text-decoration="none" x="86" fill="#000000" font-size="11pt" font-family="lt_regular"  y="76">Time</text><text text-decoration="none" x="119" fill="#4b4b4b" font-size="10pt" font-family="noto_regular"  y="76"></text></g></g><g id="IPJBkyYmnXV"><g transform="translate(750 400)"><rect x="0" y="0" width="99.99999999999999" height="50" fill="rgb(255,255,255)" stroke="#38b6b6" stroke-width="2" stroke-linecap="round" stroke-linejoin="round"/></g><g transform="translate(760, 415) rotate(0, 0, 10)" width="34" height="20"><text text-decoration="none" x="0" fill="#000000" font-size="11pt" font-family="lt_regular"  y="16">Table</text><text text-decoration="none" x="36" fill="#4b4b4b" font-size="10pt" font-family="noto_regular"  y="16"></text></g></g><g id="6OQl1DS2KXD"><g transform="translate(950 400)"><rect x="0" y="0" width="99.99999999999999" height="50" fill="rgb(255,255,255)" stroke="#38b6b6" stroke-width="2" stroke-linecap="round" stroke-linejoin="round"/></g><g transform="translate(960, 415) rotate(0, 0, 10)" width="37" height="20"><text text-decoration="none" x="0" fill="#000000" font-size="11pt" font-family="lt_regular"  y="16">Menu</text><text text-decoration="none" x="38" fill="#4b4b4b" font-size="10pt" font-family="noto_regular"  y="16"></text></g></g><g id="DjGnAxCd1dh"><mask id="fcd2b" x="636" y="211" width="178" height="28" maskUnits="userSpaceOnUse"><rect x="636" y="211" width="178" height="28" fill="white" /><rect x="665" y="212" width="30" height="26" fill="black" /><rect x="756" y="212" width="28" height="26" fill="black" /></mask><g mask="url(#fcd2b)"><path d="M 650,225 L 800,225" fill="none" stroke="#9A9A9A" stroke-width="2" stroke-linecap="round" stroke-linejoin="round"/></g><g transform="translate(668, 215)" width="24" height="20"><text text-decoration="none" x="0" fill="#4b4b4b" font-size="11pt" font-family="lt_regular"  y="16">0..1</text><text text-decoration="none" x="26" fill="#4b4b4b" font-size="10pt" font-family="noto_regular"  y="16"></text></g><g transform="translate(759, 215)" width="22" height="20"><text text-decoration="none" x="0" fill="#4b4b4b" font-size="11pt" font-family="lt_regular"  y="16">1..*</text><text text-decoration="none" x="23" fill="#4b4b4b" font-size="10pt" font-family="noto_regular"  y="16"></text></g></g><g id="BvN3mi9zmqJ"><g><path d="M 850,300 L 850,340 Q 850,350 840,350 L 825,350 L 810,350 Q 800,350 800,360 L 800,400" fill="none" stroke="#7E7E7E" stroke-width="2" stroke-linecap="round" stroke-linejoin="round"/><path d="M 800,400 L 805.75,391.30434782608694 L 794.25,391.30434782608694 Z" fill="rgb(126,126,126)" stroke="#7E7E7E" stroke-width="2" stroke-linecap="round" stroke-linejoin="round"/></g></g><g id="Xd2p5uEL16A"><g><path d="M 950,300 L 950,340 Q 950,350 960,350 L 975,350 L 990,350 Q 1000,350 1000,360 L 1000,400" fill="none" stroke="#7E7E7E" stroke-width="2" stroke-linecap="round" stroke-linejoin="round"/><path d="M 1000,400 L 1005.75,391.30434782608694 L 994.25,391.30434782608694 Z" fill="rgb(126,126,126)" stroke="#7E7E7E" stroke-width="2" stroke-linecap="round" stroke-linejoin="round"/></g></g><g id="n2ZXBcc0Jdr"><g><path d="M 1150,363 L 1139.9968764640812,362.74992191160203 Q 1130,362.5 1130,372.5 L 1130,416 L 1130,460 Q 1130,470 1120,470 L 965,470 L 810,470 Q 800,470 800,460 L 800,450" fill="none" stroke="#7E7E7E" stroke-width="2" stroke-linecap="round" stroke-linejoin="round"/><path d="M 800,450 L 794.25,458.69565217391306 L 805.75,458.69565217391306 Z" fill="rgb(126,126,126)" stroke="#7E7E7E" stroke-width="2" stroke-linecap="round" stroke-linejoin="round"/></g></g><g id="Ib7rkmRfaue"><g transform="translate(650 570.0000000000001)"><rect x="0" y="0" width="349.99999999999966" height="100" fill="rgba(255,255,255,0.01)" stroke="rgba(255,255,255,0.01)"/></g><g transform="translate(660, 580.0000000000001) rotate(0, 0, 0)" width="193" height="26"><text text-decoration="none" x="0" fill="rgb(75, 75, 75)" font-weight="bold" font-size="14pt" font-family="lt_regular"  y="20">Employee&#160;</text><text text-decoration="none" x="0" fill="rgb(75, 75, 75)" font-weight="bold" font-size="14pt" font-family="lt_regular"  y="46">Management</text><text text-decoration="none" x="111" fill="#4b4b4b" font-size="10pt" font-family="noto_regular"  y="46"></text></g></g><g id="9FBEnCpqi3h"><g transform="translate(399.99999999999994 650)"><rect x="0" y="0" width="200.00000000000006" height="150.0000000000002" rx="2" ry="2" fill="rgb(255,255,255)" stroke="#1f7bcd" stroke-width="2" stroke-linecap="round" stroke-linejoin="round"/><path d="M 0,50 L 200.00000000000006,50" fill="rgb(255,255,255)" stroke="#1f7bcd" stroke-width="2" stroke-linecap="round" stroke-linejoin="round"/></g><g transform="translate(447.5, 655) rotate(0, 52.5, 0)" width="105" height="40"><text text-decoration="none" x="0" fill="#000000" font-size="11pt" font-family="lt_regular"  y="16">&#x3C;&#x3C;StereoType&#x3E;&#x3E;</text><text text-decoration="none" x="52.5" fill="#000000" font-size="10pt" font-family="lt_regular"  y="34"></text><text text-decoration="none" x="19.5" fill="#000000" font-size="11pt" font-family="lt_regular"  y="54">Employee</text><text text-decoration="none" x="85.5" fill="#4b4b4b" font-size="10pt" font-family="noto_regular"  y="54"></text></g><g transform="translate(409.99999999999994, 705) rotate(0, 0, 0)" width="125" height="80"><text text-decoration="none" x="0" fill="#000000" font-size="11pt" font-family="lt_regular"  y="16">+&#160;</text><text text-decoration="none" x="13" fill="#000000" font-size="11pt" font-family="lt_regular"  y="16">Attribute&#160;</text><text text-decoration="none" x="75" fill="#000000" font-size="11pt" font-family="lt_regular"  y="16">1&#160;</text><text text-decoration="none" x="88" fill="#000000" font-size="11pt" font-family="lt_regular"  y="16">:&#160;</text><text text-decoration="none" x="0" fill="#000000" font-size="11pt" font-family="lt_regular"  y="36">Type</text><text text-decoration="none" x="33" fill="#000000" font-size="11pt" font-family="lt_regular"  y="36"></text><text text-decoration="none" x="0" fill="#000000" font-size="11pt" font-family="lt_regular"  y="56">+&#160;</text><text text-decoration="none" x="13" fill="#000000" font-size="11pt" font-family="lt_regular"  y="56">Attribute&#160;</text><text text-decoration="none" x="75" fill="#000000" font-size="11pt" font-family="lt_regular"  y="56">2&#160;</text><text text-decoration="none" x="88" fill="#000000" font-size="11pt" font-family="lt_regular"  y="56">:&#160;</text><text text-decoration="none" x="0" fill="#000000" font-size="11pt" font-family="lt_regular"  y="76">Type</text><text text-decoration="none" x="33" fill="#000000" font-size="11pt" font-family="lt_regular"  y="76"></text><text text-decoration="none" x="0" fill="#000000" font-size="11pt" font-family="lt_regular"  y="96">-&#160;</text><text text-decoration="none" x="10" fill="#000000" font-size="11pt" font-family="lt_regular"  y="96">Attribute&#160;</text><text text-decoration="none" x="72" fill="#000000" font-size="11pt" font-family="lt_regular"  y="96">3&#160;</text><text text-decoration="none" x="85" fill="#000000" font-size="11pt" font-family="lt_regular"  y="96">:&#160;</text><text text-decoration="none" x="0" fill="#000000" font-size="11pt" font-family="lt_regular"  y="116">Type</text><text text-decoration="none" x="33" fill="#000000" font-size="11pt" font-family="lt_regular"  y="116"></text><text text-decoration="none" x="0" fill="#000000" font-size="11pt" font-family="lt_regular"  y="136">-&#160;</text><text text-decoration="none" x="10" fill="#000000" font-size="11pt" font-family="lt_regular"  y="136">Attribute&#160;</text><text text-decoration="none" x="72" fill="#000000" font-size="11pt" font-family="lt_regular"  y="136">4&#160;</text><text text-decoration="none" x="85" fill="#000000" font-size="11pt" font-family="lt_regular"  y="136">:&#160;</text><text text-decoration="none" x="0" fill="#000000" font-size="11pt" font-family="lt_regular"  y="156">Type</text><text text-decoration="none" x="33" fill="#4b4b4b" font-size="10pt" font-family="noto_regular"  y="156"></text></g></g><g id="1N3m944Qp3v"><g transform="translate(899.9999999999998 650)"><rect x="0" y="0" width="200.00000000000014" height="150.0000000000002" rx="2" ry="2" fill="rgb(255,255,255)" stroke="#1f7bcd" stroke-width="2" stroke-linecap="round" stroke-linejoin="round"/><path d="M 0,50 L 200.00000000000014,50" fill="rgb(255,255,255)" stroke="#1f7bcd" stroke-width="2" stroke-linecap="round" stroke-linejoin="round"/></g><g transform="translate(909.9999999999998, 655) rotate(0, 0, 0)" width="105" height="40"><text text-decoration="none" x="0" fill="#000000" font-size="11pt" font-family="lt_regular"  y="16">&#x3C;&#x3C;StereoType&#x3E;&#x3E;</text><text text-decoration="none" x="0" fill="#000000" font-size="10pt" font-family="lt_regular"  y="34"></text><text text-decoration="none" x="0" fill="#000000" font-size="11pt" font-family="lt_regular"  y="54">Role</text><text text-decoration="none" x="30" fill="#4b4b4b" font-size="10pt" font-family="noto_regular"  y="54"></text></g><g transform="translate(909.9999999999998, 705) rotate(0, 0, 0)" width="125" height="80"><text text-decoration="none" x="0" fill="#000000" font-size="11pt" font-family="lt_regular"  y="16">+&#160;</text><text text-decoration="none" x="13" fill="#000000" font-size="11pt" font-family="lt_regular"  y="16">Attribute&#160;</text><text text-decoration="none" x="75" fill="#000000" font-size="11pt" font-family="lt_regular"  y="16">1&#160;</text><text text-decoration="none" x="88" fill="#000000" font-size="11pt" font-family="lt_regular"  y="16">:&#160;</text><text text-decoration="none" x="0" fill="#000000" font-size="11pt" font-family="lt_regular"  y="36">Type</text><text text-decoration="none" x="33" fill="#000000" font-size="11pt" font-family="lt_regular"  y="36"></text><text text-decoration="none" x="0" fill="#000000" font-size="11pt" font-family="lt_regular"  y="56">+&#160;</text><text text-decoration="none" x="13" fill="#000000" font-size="11pt" font-family="lt_regular"  y="56">Attribute&#160;</text><text text-decoration="none" x="75" fill="#000000" font-size="11pt" font-family="lt_regular"  y="56">2&#160;</text><text text-decoration="none" x="88" fill="#000000" font-size="11pt" font-family="lt_regular"  y="56">:&#160;</text><text text-decoration="none" x="0" fill="#000000" font-size="11pt" font-family="lt_regular"  y="76">Type</text><text text-decoration="none" x="33" fill="#000000" font-size="11pt" font-family="lt_regular"  y="76"></text><text text-decoration="none" x="0" fill="#000000" font-size="11pt" font-family="lt_regular"  y="96">-&#160;</text><text text-decoration="none" x="10" fill="#000000" font-size="11pt" font-family="lt_regular"  y="96">Attribute&#160;</text><text text-decoration="none" x="72" fill="#000000" font-size="11pt" font-family="lt_regular"  y="96">3&#160;</text><text text-decoration="none" x="85" fill="#000000" font-size="11pt" font-family="lt_regular"  y="96">:&#160;</text><text text-decoration="none" x="0" fill="#000000" font-size="11pt" font-family="lt_regular"  y="116">Type</text><text text-decoration="none" x="33" fill="#000000" font-size="11pt" font-family="lt_regular"  y="116"></text><text text-decoration="none" x="0" fill="#000000" font-size="11pt" font-family="lt_regular"  y="136">-&#160;</text><text text-decoration="none" x="10" fill="#000000" font-size="11pt" font-family="lt_regular"  y="136">Attribute&#160;</text><text text-decoration="none" x="72" fill="#000000" font-size="11pt" font-family="lt_regular"  y="136">4&#160;</text><text text-decoration="none" x="85" fill="#000000" font-size="11pt" font-family="lt_regular"  y="136">:&#160;</text><text text-decoration="none" x="0" fill="#000000" font-size="11pt" font-family="lt_regular"  y="156">Type</text><text text-decoration="none" x="33" fill="#4b4b4b" font-size="10pt" font-family="noto_regular"  y="156"></text></g></g><g id="oMe6JVhjcuz"><mask id="56a9c" x="586" y="711" width="328" height="28" maskUnits="userSpaceOnUse"><rect x="586" y="711" width="328" height="28" fill="white" /><rect x="721" y="713" width="58" height="24" fill="black" /></mask><g mask="url(#56a9c)"><path d="M 900,725 L 600,725" fill="none" stroke="#9A9A9A" stroke-width="2" stroke-linecap="round" stroke-linejoin="round" stroke-dasharray="0 0"/><path d="M 600,725 L 606.9565217391304,731.4971751412429 M 600,725 L 606.9565217391304,718.5028248587571 Z" fill="rgb(255,255,255)" stroke="#9A9A9A" stroke-width="2" stroke-linecap="round" stroke-linejoin="round"/></g><g transform="translate(724, 716)" width="52" height="18"><text text-decoration="none" x="1.5" fill="rgb(84, 84, 84)" font-size="10pt" font-family="noto_regular"  y="15">&#x3C;&#x3C;use&#x3E;&#x3E;</text><text text-decoration="none" x="50.5" fill="#4b4b4b" font-size="10pt" font-family="noto_regular"  y="15"></text></g></g><g id="wDGstfyxbuH"><g transform="translate(400 1000)"><rect x="0" y="0" width="199.99999999999997" height="100.00000000000006" rx="2" ry="2" fill="rgb(255,255,255)" stroke="#380be9" stroke-width="2" stroke-linecap="round" stroke-linejoin="round"/><path d="M 0,50 L 199.99999999999997,50" fill="rgb(255,255,255)" stroke="#380be9" stroke-width="2" stroke-linecap="round" stroke-linejoin="round"/></g><g transform="translate(442, 1005) rotate(0, 58, 0)" width="116" height="40"><text text-decoration="none" x="2" fill="#000000" font-size="11pt" font-family="lt_regular"  y="16">&#x3C;&#x3C;StereoType&#x3E;&#x3E;</text><text text-decoration="none" x="114" fill="#000000" font-size="11pt" font-family="lt_regular"  y="16"></text><text text-decoration="none" x="33" fill="#000000" font-size="11pt" font-family="lt_regular"  y="36">Kitchen&#160;</text><text text-decoration="none" x="26.5" fill="#000000" font-size="11pt" font-family="lt_regular"  y="56">Inventory</text><text text-decoration="none" x="89.5" fill="#4b4b4b" font-size="10pt" font-family="noto_regular"  y="56"></text></g><g transform="translate(405, 1055) rotate(0, 0, 0)" width="0" height="18"><text text-decoration="none" x="0" fill="#4b4b4b" font-size="10pt" font-family="noto_regular"  y="15"></text></g></g><g id="Wa9ILgiCqwa"><g transform="translate(899.9999999999999 1000)"><rect x="0" y="0" width="200.00000000000034" height="100.00000000000006" rx="2" ry="2" fill="rgb(255,255,255)" stroke="#380be9" stroke-width="2" stroke-linecap="round" stroke-linejoin="round"/><path d="M 0,50 L 200.00000000000034,50" fill="rgb(255,255,255)" stroke="#380be9" stroke-width="2" stroke-linecap="round" stroke-linejoin="round"/></g><g transform="translate(947.5, 1005) rotate(0, 52.5, 0)" width="105" height="40"><text text-decoration="none" x="0" fill="#000000" font-size="11pt" font-family="lt_regular"  y="16">&#x3C;&#x3C;StereoType&#x3E;&#x3E;</text><text text-decoration="none" x="52.5" fill="#000000" font-size="10pt" font-family="lt_regular"  y="34"></text><text text-decoration="none" x="13.5" fill="#000000" font-size="11pt" font-family="lt_regular"  y="54">Order&#160;</text><text text-decoration="none" x="55.5" fill="#000000" font-size="11pt" font-family="lt_regular"  y="54">Book</text><text text-decoration="none" x="91.5" fill="#4b4b4b" font-size="10pt" font-family="noto_regular"  y="54"></text></g><g transform="translate(904.9999999999999, 1055) rotate(0, 0, 0)" width="0" height="18"><text text-decoration="none" x="0" fill="#4b4b4b" font-size="10pt" font-family="noto_regular"  y="15"></text></g></g><g id="vxq2RzhyUdP"><g><path d="M 197,850 L 1499,850 Q 1489.6597300625017,850 1489.3298650312508,850 L 197,850" fill="none" stroke="#7E7E7E" stroke-width="2" stroke-linecap="round" stroke-linejoin="round"/></g></g><g id="AJXMCeIymV9"><g><path d="M 202,501 L 1502,501 Q 1492.357467625894,501 1492.178733812947,501 L 202,501" fill="none" stroke="#7E7E7E" stroke-width="2" stroke-linecap="round" stroke-linejoin="round"/></g></g><g id="lP9e3yzwhpf"><g transform="translate(610 920)"><rect x="0" y="0" width="410.0000000000005" height="100" fill="rgba(255,255,255,0.01)" stroke="rgba(255,255,255,0.01)"/></g><g transform="translate(620, 930) rotate(0, 0, 0)" width="297" height="44"><text text-decoration="none" x="0" fill="#4b4b4b" font-weight="bold" font-size="14pt" font-family="lt_regular"  y="20">Kitchen&#160;</text><text text-decoration="none" x="71" fill="#4b4b4b" font-weight="bold" font-size="14pt" font-family="lt_regular"  y="20">And&#160;</text><text text-decoration="none" x="111" fill="#4b4b4b" font-weight="bold" font-size="14pt" font-family="lt_regular"  y="20">Inventory&#160;</text><text text-decoration="none" x="0" fill="#4b4b4b" font-weight="bold" font-size="14pt" font-family="lt_regular"  y="46">Management</text><text text-decoration="none" x="111" fill="#4b4b4b" font-size="10pt" font-family="lt_regular"  y="46"></text><text text-decoration="none" x="148.5" fill="#4b4b4b" font-size="10pt" font-family="noto_regular"  y="67"></text></g></g></svg>