<svg xmlns="http://www.w3.org/2000/svg" xmlns:svg="http://www.w3.org/2000/svg" xmlns:xlink="http://www.w3.org/1999/xlink" version="1.0" height="1030pt" width="1690pt" viewBox="94.99999999999989 -3 1698 1036" ><defs><style type="text/css">
            @font-face {
                font-family: 'lt_regular';
                src: url('https://app.creately.com/diagram/assets/fonts/lato/lt-regular-webfont.woff2') format('woff2'),
                    url('https://app.creately.com/diagram/assets/fonts/lato/lt-regular-webfont.woff') format('woff');
                font-weight: normal;
                font-style: normal;
            }
            @font-face {
                font-family: 'noto_regular';
                src: url('https://app.creately.com/diagram/assets/fonts/noto/noto-regular.woff') format('woff'),
                     url('https://app.creately.com/diagram/assets/fonts/noto/noto-regular.woff2') format('woff2');
                font-weight: normal;
                font-style: normal;
            }
        p {
            margin: 0;
        }
        </style></defs><defs><style>
            span{ display: inline-block; }
        </style></defs><g id="cxmRTPSSOE0"><g transform="translate(99.99999999999989 0)"><rect x="0" y="0" width="660.0000000000001" height="64" fill="rgba(255,255,255,0.01)" stroke="rgba(255,255,255,0.01)"/></g></g><g id="eLWtd74uYQV"><g transform="translate(340 270)"><rect x="0" y="0" width="100" height="50" fill="white" stroke="#356260" stroke-width="2" stroke-linecap="round" stroke-linejoin="round" stroke-dasharray="0 0"/></g><g transform="translate(361.5, 285.5) rotate(0, 28.5, 9.5)" width="57" height="19"><text text-decoration="none" x="0" fill="black" font-size="10pt" font-family="lt_regular"  y="15">Employee</text><text text-decoration="none" x="57" fill="#4b4b4b" font-size="10pt" font-family="noto_regular"  y="15"></text></g></g><g id="cCfejtB2i8C"><g transform="translate(450 199.99999999999994)"><ellipse cx="30.000000000000004" cy="19.99999999999999" rx="30.000000000000004" ry="19.99999999999999" fill="white" stroke="black" stroke-width="2" stroke-linecap="round" stroke-linejoin="round" stroke-dasharray="0 0"/></g><g transform="translate(473, 210.49999999999994) rotate(0, 7, 9.5)" width="14" height="19"><text text-decoration="none" x="0" fill="black" font-size="10pt" font-family="lt_regular"  y="15">ID</text><text text-decoration="none" x="14" fill="#4b4b4b" font-size="10pt" font-family="noto_regular"  y="15"></text></g></g><g id="9w9P34h5otI"><g><path d="M 440,295 L 468,238" fill="none" stroke="#9A9A9A" stroke-width="2" stroke-linecap="round" stroke-linejoin="round"/></g></g><g id="yijAUgUcxzH"><g transform="translate(380 150.0000000000001)"><ellipse cx="50" cy="25" rx="50" ry="25" fill="white" stroke="black" stroke-width="2" stroke-linecap="round" stroke-linejoin="round" stroke-dasharray="0 0"/></g><g transform="translate(408.5, 165.5000000000001) rotate(0, 21.5, 9.5)" width="43" height="19"><text text-decoration="none" x="0" fill="black" font-size="10pt" font-family="lt_regular"  y="15">Gender</text><text text-decoration="none" x="43" fill="#4b4b4b" font-size="10pt" font-family="noto_regular"  y="15"></text></g></g><g id="5RHVsNORpXX"><g><path d="M 390,270 L 410,198" fill="none" stroke="#9A9A9A" stroke-width="2" stroke-linecap="round" stroke-linejoin="round"/></g></g><g id="RVmERZMTwQa"><g transform="translate(219.99999999999997 150.00000000000006)"><ellipse cx="50" cy="25" rx="50" ry="25" fill="white" stroke="black" stroke-width="2" stroke-linecap="round" stroke-linejoin="round" stroke-dasharray="0 0"/></g><g transform="translate(253, 165.50000000000006) rotate(0, 17, 9.5)" width="34" height="19"><text text-decoration="none" x="0.5" fill="black" font-size="10pt" font-family="lt_regular"  y="15">salary</text><text text-decoration="none" x="33.5" fill="#4b4b4b" font-size="10pt" font-family="noto_regular"  y="15"></text></g></g><g id="RuRHfCiICds"><g><path d="M 340,295 L 290,198" fill="none" stroke="#9A9A9A" stroke-width="2" stroke-linecap="round" stroke-linejoin="round"/></g></g><g id="GpmNZhCx6la"><g transform="translate(169.99999999999997 210)"><ellipse cx="50" cy="25" rx="50" ry="25" fill="white" stroke="black" stroke-width="2" stroke-linecap="round" stroke-linejoin="round" stroke-dasharray="0 0"/></g><g transform="translate(205.5, 225.5) rotate(0, 14.5, 9.5)" width="29" height="19"><text text-decoration="none" x="0.5" fill="black" font-size="10pt" font-family="lt_regular"  y="15">DOB</text><text text-decoration="none" x="28.5" fill="#4b4b4b" font-size="10pt" font-family="noto_regular"  y="15"></text></g></g><g id="lGWAlSurBDE"><g><path d="M 340,295 L 260,250" fill="none" stroke="#9A9A9A" stroke-width="2" stroke-linecap="round" stroke-linejoin="round"/></g></g><g id="3rKZcQBoAjT"><g transform="translate(199.99999999999997 320)"><ellipse cx="50" cy="25" rx="50" ry="25" fill="white" stroke="black" stroke-width="2" stroke-linecap="round" stroke-linejoin="round" stroke-dasharray="0 0"/></g><g transform="translate(215, 335.5) rotate(0, 35, 9.5)" width="70" height="19"><text text-decoration="none" x="1" fill="black" font-size="10pt" font-family="lt_regular"  y="15">Designation</text><text text-decoration="none" x="69" fill="#4b4b4b" font-size="10pt" font-family="noto_regular"  y="15"></text></g></g><g id="kaJ8yramhkH"><g><path d="M 340,295 L 290,330" fill="none" stroke="#9A9A9A" stroke-width="2" stroke-linecap="round" stroke-linejoin="round"/></g></g><g id="8ZK2U882nhn"><g transform="translate(490 230)"><ellipse cx="50" cy="25" rx="50" ry="25" fill="white" stroke="black" stroke-width="2" stroke-linecap="round" stroke-linejoin="round" stroke-dasharray="0 0"/></g><g transform="translate(526.5, 245.5) rotate(0, 13.5, 9.5)" width="27" height="19"><text text-decoration="none" x="0" fill="black" font-size="10pt" font-family="lt_regular"  y="15">Shift</text><text text-decoration="none" x="27" fill="#4b4b4b" font-size="10pt" font-family="noto_regular"  y="15"></text></g></g><g id="8ytXmHe0JfC"><g><path d="M 440,295 L 490,255" fill="none" stroke="#9A9A9A" stroke-width="2" stroke-linecap="round" stroke-linejoin="round"/></g></g><g id="yBVEJVnqr8N"><g transform="translate(129.99999999999997 270)"><ellipse cx="50" cy="25" rx="50" ry="25" fill="white" stroke="black" stroke-width="2" stroke-linecap="round" stroke-linejoin="round" stroke-dasharray="0 0"/></g><g transform="translate(157.49999999999997, 285.5) rotate(0, 22.5, 9.5)" width="45" height="19"><text text-decoration="none" x="0.5" fill="black" font-size="10pt" font-family="lt_regular"  y="15">address</text><text text-decoration="none" x="44.5" fill="#4b4b4b" font-size="10pt" font-family="noto_regular"  y="15"></text></g></g><g id="QAJpPuDE4YZ"><g><path d="M 340,295 L 230,295" fill="none" stroke="#9A9A9A" stroke-width="2" stroke-linecap="round" stroke-linejoin="round"/></g></g><g id="eOhrKlUFDFp"><g transform="translate(300 109.99999999999999)"><ellipse cx="50" cy="25" rx="50" ry="25" fill="white" stroke="black" stroke-width="2" stroke-linecap="round" stroke-linejoin="round" stroke-dasharray="0 0"/></g><g transform="translate(332.5, 125.5) rotate(0, 17.5, 9.5)" width="35" height="19"><text text-decoration="none" x="0.5" fill="black" font-size="10pt" font-family="lt_regular"  y="15">Name</text><text text-decoration="none" x="34.5" fill="#4b4b4b" font-size="10pt" font-family="noto_regular"  y="15"></text></g></g><g id="OMOoH7NrrxT"><g><path d="M 390,270 L 370,158" fill="none" stroke="#9A9A9A" stroke-width="2" stroke-linecap="round" stroke-linejoin="round"/></g></g><g id="HYwf3J2pK8E"><g transform="translate(610 260)"><path d="M 120,35 L 60,70 L 0,35 L 60,0 L 120,35 L 120,35 Z" fill="white" stroke="black" stroke-width="2" stroke-linecap="round" stroke-linejoin="round" stroke-dasharray="0 0"/></g><g transform="translate(654, 285.5) rotate(0, 16, 9.5)" width="32" height="19"><text text-decoration="none" x="0" fill="black" font-size="10pt" font-family="lt_regular"  y="15">Takes</text><text text-decoration="none" x="34" fill="#4b4b4b" font-size="10pt" font-family="noto_regular"  y="15"></text></g></g><g id="zKDQFgIhNWV"><g><path d="M 440,295 L 610,295" fill="none" stroke="#7E7E7E" stroke-width="2" stroke-linecap="round" stroke-linejoin="round"/></g></g><g id="4DdugtvPWy9"><g transform="translate(830.0000000000002 270)"><rect x="0" y="0" width="100" height="50" fill="white" stroke="#356260" stroke-width="2" stroke-linecap="round" stroke-linejoin="round" stroke-dasharray="0 0"/></g><g transform="translate(863.0000000000002, 285.5) rotate(0, 17, 9.5)" width="34" height="19"><text text-decoration="none" x="0" fill="black" font-size="10pt" font-family="lt_regular"  y="15">Order</text><text text-decoration="none" x="34" fill="#4b4b4b" font-size="10pt" font-family="noto_regular"  y="15"></text></g></g><g id="rbhmJT9GU0z"><g><path d="M 730,295 L 830,295" fill="none" stroke="#7E7E7E" stroke-width="2" stroke-linecap="round" stroke-linejoin="round"/></g></g><g id="S8O5QZjTJxq"><g transform="translate(940 210)"><ellipse cx="50" cy="25" rx="50" ry="25" fill="white" stroke="#F1CC84" stroke-width="2" stroke-linecap="round" stroke-linejoin="round"/></g><g transform="translate(963.5, 225.5) rotate(0, 26.5, 9.5)" width="53" height="19"><text text-decoration="none" x="0" fill="black" font-size="10pt" font-family="lt_regular"  y="15">Attribute</text><text text-decoration="none" x="53" fill="#4b4b4b" font-size="10pt" font-family="noto_regular"  y="15"></text></g></g><g id="QeArlT1NLXY"><g><path d="M 930,295 L 950,250" fill="none" stroke="#9A9A9A" stroke-width="2" stroke-linecap="round" stroke-linejoin="round"/></g></g><g id="f3wa20dhbAC"><g transform="translate(930 149.99999999999997)"><ellipse cx="50" cy="25" rx="50" ry="25" fill="white" stroke="black" stroke-width="2" stroke-linecap="round" stroke-linejoin="round" stroke-dasharray="0 0"/></g><g transform="translate(965.5, 165.49999999999997) rotate(0, 14.5, 9.5)" width="29" height="19"><text text-decoration="none" x="0" fill="black" font-size="10pt" font-family="lt_regular"  y="15">Price</text><text text-decoration="none" x="29" fill="#4b4b4b" font-size="10pt" font-family="noto_regular"  y="15"></text></g></g><g id="rtAtuyVC35W"><g><path d="M 880,270 L 940,190" fill="none" stroke="#9A9A9A" stroke-width="2" stroke-linecap="round" stroke-linejoin="round"/></g></g><g id="7HmZaktFkZe"><g transform="translate(770.0000000000002 149.99999999999997)"><ellipse cx="50" cy="25" rx="50" ry="25" fill="white" stroke="black" stroke-width="2" stroke-linecap="round" stroke-linejoin="round" stroke-dasharray="0 0"/></g><g transform="translate(798.0000000000002, 165.49999999999997) rotate(0, 22, 9.5)" width="44" height="19"><text text-decoration="none" x="0.5" fill="black" font-size="10pt" font-family="lt_regular"  y="15">Dish_Id</text><text text-decoration="none" x="43.5" fill="#4b4b4b" font-size="10pt" font-family="noto_regular"  y="15"></text></g></g><g id="tOdvkAvLq7I"><g><path d="M 880,270 L 840,198" fill="none" stroke="#9A9A9A" stroke-width="2" stroke-linecap="round" stroke-linejoin="round"/></g></g><g id="ZWf05WgbfdE"><g transform="translate(760 210.00000000000003)"><ellipse cx="34.99999999999997" cy="25" rx="34.99999999999997" ry="25" fill="white" stroke="black" stroke-width="2" stroke-linecap="round" stroke-linejoin="round" stroke-dasharray="0 0"/></g><g transform="translate(788, 225.5) rotate(0, 7, 9.5)" width="14" height="19"><text text-decoration="none" x="0" fill="black" font-size="10pt" font-family="lt_regular"  y="15">ID</text><text text-decoration="none" x="14" fill="#4b4b4b" font-size="10pt" font-family="noto_regular"  y="15"></text></g></g><g id="RdUsX2GkPkZ"><g><path d="M 830,295 L 809,258" fill="none" stroke="#9A9A9A" stroke-width="2" stroke-linecap="round" stroke-linejoin="round"/></g></g><g id="7Ub91op3dYK"><g transform="translate(940 210)"><ellipse cx="50" cy="25" rx="50" ry="25" fill="white" stroke="black" stroke-width="2" stroke-linecap="round" stroke-linejoin="round" stroke-dasharray="0 0"/></g><g transform="translate(966.5, 225.5) rotate(0, 23.5, 9.5)" width="47" height="19"><text text-decoration="none" x="0" fill="black" font-size="10pt" font-family="lt_regular"  y="15">Cust_ID</text><text text-decoration="none" x="47" fill="#4b4b4b" font-size="10pt" font-family="noto_regular"  y="15"></text></g></g><g id="t0FWEdWnJt0"><g><path d="M 930,295 L 950,250" fill="none" stroke="#9A9A9A" stroke-width="2" stroke-linecap="round" stroke-linejoin="round"/></g></g><g id="bx1L5Ewz01P"><g transform="translate(840 99.99999999999997)"><ellipse cx="50" cy="25" rx="50" ry="25" fill="white" stroke="black" stroke-width="2" stroke-linecap="round" stroke-linejoin="round" stroke-dasharray="0 0"/></g><g transform="translate(850.5, 115.49999999999997) rotate(0, 39.5, 9.5)" width="79" height="19"><text text-decoration="none" x="0.5" fill="black" font-size="10pt" font-family="lt_regular"  y="15">Cocking&#160;</text><text text-decoration="none" x="49.5" fill="black" font-size="10pt" font-family="lt_regular"  y="15">Time</text><text text-decoration="none" x="78.5" fill="#4b4b4b" font-size="10pt" font-family="noto_regular"  y="15"></text></g></g><g id="syeVaQXrzZg"><g><path d="M 880,270 L 890,150" fill="none" stroke="#9A9A9A" stroke-width="2" stroke-linecap="round" stroke-linejoin="round"/></g></g><g id="3PtDhmLqLKS"><g transform="translate(1070 260)"><path d="M 120,35 L 60,70 L 0,35 L 60,0 L 120,35 L 120,35 Z" fill="white" stroke="black" stroke-width="2" stroke-linecap="round" stroke-linejoin="round" stroke-dasharray="0 0"/></g><g transform="translate(1114, 285.5) rotate(0, 16, 9.5)" width="32" height="19"><text text-decoration="none" x="0" fill="black" font-size="10pt" font-family="lt_regular"  y="15">Gives</text><text text-decoration="none" x="33" fill="#4b4b4b" font-size="10pt" font-family="noto_regular"  y="15"></text></g></g><g id="Tx6Rdzrsm6X"><g><path d="M 930,295 L 1070,295" fill="none" stroke="#7E7E7E" stroke-width="2" stroke-linecap="round" stroke-linejoin="round"/></g></g><g id="WKK1RBOfJ1r"><g transform="translate(1299.9999999999998 270)"><rect x="0" y="0" width="100" height="50" fill="white" stroke="#356260" stroke-width="2" stroke-linecap="round" stroke-linejoin="round" stroke-dasharray="0 0"/></g><g transform="translate(1321.4999999999998, 285.5) rotate(0, 28.5, 9.5)" width="57" height="19"><text text-decoration="none" x="0" fill="black" font-size="10pt" font-family="lt_regular"  y="15">Customer</text><text text-decoration="none" x="57" fill="#4b4b4b" font-size="10pt" font-family="noto_regular"  y="15"></text></g></g><g id="chjdb72CPZs"><g><path d="M 1190,295 L 1300,295" fill="none" stroke="#7E7E7E" stroke-width="2" stroke-linecap="round" stroke-linejoin="round"/></g></g><g id="APjj0XtekkQ"><g transform="translate(1190 170)"><ellipse cx="50" cy="25" rx="50" ry="25" fill="white" stroke="black" stroke-width="2" stroke-linecap="round" stroke-linejoin="round" stroke-dasharray="0 0"/></g><g transform="translate(1233, 185.5) rotate(0, 7, 9.5)" width="14" height="19"><text text-decoration="none" x="0" fill="black" font-size="10pt" font-family="lt_regular"  y="15">ID</text><text text-decoration="none" x="14" fill="#4b4b4b" font-size="10pt" font-family="noto_regular"  y="15"></text></g></g><g id="pDSeL9dMx55"><g><path d="M 1300,295 L 1260,218" fill="none" stroke="#9A9A9A" stroke-width="2" stroke-linecap="round" stroke-linejoin="round"/></g></g><g id="WWpt3MPh7k9"><g transform="translate(1220.0000000000002 100.00000000000001)"><ellipse cx="50" cy="25" rx="50" ry="25" fill="white" stroke="black" stroke-width="2" stroke-linecap="round" stroke-linejoin="round" stroke-dasharray="0 0"/></g><g transform="translate(1252.5000000000002, 115.5) rotate(0, 17.5, 9.5)" width="35" height="19"><text text-decoration="none" x="0.5" fill="black" font-size="10pt" font-family="lt_regular"  y="15">Name</text><text text-decoration="none" x="34.5" fill="#4b4b4b" font-size="10pt" font-family="noto_regular"  y="15"></text></g></g><g id="hu5w4tkfAvq"><g><path d="M 1350,270 L 1290,148" fill="none" stroke="#9A9A9A" stroke-width="2" stroke-linecap="round" stroke-linejoin="round"/></g></g><g id="mMj0cO2ose3"><g transform="translate(1349.9999999999998 160)"><ellipse cx="50" cy="25" rx="50" ry="25" fill="white" stroke="black" stroke-width="2" stroke-linecap="round" stroke-linejoin="round" stroke-dasharray="0 0"/></g><g transform="translate(1385.9999999999998, 175.5) rotate(0, 14, 9.5)" width="28" height="19"><text text-decoration="none" x="0" fill="black" font-size="10pt" font-family="lt_regular"  y="15">Date</text><text text-decoration="none" x="28" fill="#4b4b4b" font-size="10pt" font-family="noto_regular"  y="15"></text></g></g><g id="KCFY9CfzX7t"><g><path d="M 1350,270 L 1380,208" fill="none" stroke="#9A9A9A" stroke-width="2" stroke-linecap="round" stroke-linejoin="round"/></g></g><g id="CSzbGxaF61v"><g transform="translate(1459.9999999999998 120)"><ellipse cx="50" cy="25" rx="50" ry="25" fill="white" stroke="black" stroke-width="2" stroke-linecap="round" stroke-linejoin="round" stroke-dasharray="0 0"/></g><g transform="translate(1494.4999999999998, 135.5) rotate(0, 15.5, 9.5)" width="31" height="19"><text text-decoration="none" x="0" fill="black" font-size="10pt" font-family="lt_regular"  y="15">Email</text><text text-decoration="none" x="31" fill="#4b4b4b" font-size="10pt" font-family="noto_regular"  y="15"></text></g></g><g id="6WjyZIm2q82"><g><path d="M 1400,295 L 1470,160" fill="none" stroke="#9A9A9A" stroke-width="2" stroke-linecap="round" stroke-linejoin="round"/></g></g><g id="01cT43oCQ0F"><g transform="translate(1490 189.99999999999997)"><ellipse cx="50" cy="25" rx="50" ry="25" fill="white" stroke="black" stroke-width="2" stroke-linecap="round" stroke-linejoin="round" stroke-dasharray="0 0"/></g><g transform="translate(1521.5, 205.49999999999997) rotate(0, 18.5, 9.5)" width="37" height="19"><text text-decoration="none" x="1" fill="black" font-size="10pt" font-family="lt_regular"  y="15">phone</text><text text-decoration="none" x="36" fill="#4b4b4b" font-size="10pt" font-family="noto_regular"  y="15"></text></g></g><g id="O1hcOvdKT8W"><g><path d="M 1400,295 L 1500,230" fill="none" stroke="#9A9A9A" stroke-width="2" stroke-linecap="round" stroke-linejoin="round"/></g></g><g id="G1VUlWg6cRv"><g transform="translate(1490.0000000000002 260)"><ellipse cx="50" cy="25" rx="50" ry="25" fill="white" stroke="black" stroke-width="2" stroke-linecap="round" stroke-linejoin="round" stroke-dasharray="0 0"/></g><g transform="translate(1526.0000000000002, 275.5) rotate(0, 14, 9.5)" width="28" height="19"><text text-decoration="none" x="0" fill="black" font-size="10pt" font-family="lt_regular"  y="15">Type</text><text text-decoration="none" x="29" fill="#4b4b4b" font-size="10pt" font-family="noto_regular"  y="15"></text></g></g><g id="YD2XtATMJil"><g><path d="M 1400,295 L 1490,285" fill="none" stroke="#9A9A9A" stroke-width="2" stroke-linecap="round" stroke-linejoin="round"/></g></g><g id="DcedwzzVPTH"><g transform="translate(1690 380)"><ellipse cx="50" cy="25" rx="50" ry="25" fill="white" stroke="black" stroke-width="2" stroke-linecap="round" stroke-linejoin="round" stroke-dasharray="0 0"/></g><g transform="translate(1714, 395.5) rotate(0, 26, 9.5)" width="52" height="19"><text text-decoration="none" x="0.5" fill="black" font-size="10pt" font-family="lt_regular"  y="15">Time&#160;</text><text text-decoration="none" x="32.5" fill="black" font-size="10pt" font-family="lt_regular"  y="15">out</text><text text-decoration="none" x="51.5" fill="#4b4b4b" font-size="10pt" font-family="noto_regular"  y="15"></text></g></g><g id="pE8qRc0ONFv"><g><path d="M 1650,358 L 1700,390" fill="none" stroke="black" stroke-width="2" stroke-linecap="round" stroke-linejoin="round" stroke-dasharray="0 0"/></g></g><g id="vdEwjJG3FDq"><g transform="translate(1520.0000000000002 380)"><ellipse cx="50" cy="25" rx="50" ry="25" fill="white" stroke="black" stroke-width="2" stroke-linecap="round" stroke-linejoin="round" stroke-dasharray="0 0"/></g><g transform="translate(1548.5000000000002, 395.5) rotate(0, 21.5, 9.5)" width="43" height="19"><text text-decoration="none" x="0.5" fill="black" font-size="10pt" font-family="lt_regular"  y="15">Time&#160;</text><text text-decoration="none" x="32.5" fill="black" font-size="10pt" font-family="lt_regular"  y="15">in</text><text text-decoration="none" x="42.5" fill="#4b4b4b" font-size="10pt" font-family="noto_regular"  y="15"></text></g></g><g id="zTND6TaXahj"><g><path d="M 1610,358 L 1590,382" fill="none" stroke="black" stroke-width="2" stroke-linecap="round" stroke-linejoin="round" stroke-dasharray="0 0"/></g></g><g id="kqLi8nYzORU"><g><path d="M 1400,295 L 1580,335" fill="none" stroke="#9A9A9A" stroke-width="2" stroke-linecap="round" stroke-linejoin="round"/></g></g><g id="d5tXEQpqZV0"><g transform="translate(1289.9999999999998 50.00000000000004)"><ellipse cx="50" cy="25" rx="50" ry="25" fill="white" stroke="black" stroke-width="2" stroke-linecap="round" stroke-linejoin="round" stroke-dasharray="0 0"/></g><g transform="translate(1320.4999999999998, 65.50000000000004) rotate(0, 19.5, 9.5)" width="39" height="19"><text text-decoration="none" x="0" fill="black" font-size="10pt" font-family="lt_regular"  y="15">Adress</text><text text-decoration="none" x="40" fill="#4b4b4b" font-size="10pt" font-family="noto_regular"  y="15"></text></g></g><g id="PMCMBXWz4Km"><g><path d="M 1350,270 L 1340,100" fill="none" stroke="#9A9A9A" stroke-width="2" stroke-linecap="round" stroke-linejoin="round"/></g></g><g id="IQYoJpNC7aE"><g transform="translate(1580 300)"><ellipse cx="50" cy="25" rx="50" ry="25" fill="white" stroke="black" stroke-width="2" stroke-linecap="round" stroke-linejoin="round" stroke-dasharray="0 0"/></g><g transform="translate(1615.5, 315.5) rotate(0, 14.5, 9.5)" width="29" height="19"><text text-decoration="underline" x="0" fill="black" font-size="10pt" font-family="lt_regular"  y="15">Time</text><text text-decoration="none" x="29" fill="#4b4b4b" font-size="10pt" font-family="noto_regular"  y="15"></text></g></g><g id="7wS6vyRhXxF"><g transform="translate(1420.0000000000002 330)"><ellipse cx="50" cy="25" rx="50" ry="25" fill="white" stroke="black" stroke-width="2" stroke-linecap="round" stroke-linejoin="round" stroke-dasharray="0 0"/></g><g transform="translate(1449.0000000000002, 345.5) rotate(0, 21, 9.5)" width="42" height="19"><text text-decoration="none" x="0" fill="black" font-size="10pt" font-family="lt_regular"  y="15">Table&#160;</text><text text-decoration="none" x="34" fill="black" font-size="10pt" font-family="lt_regular"  y="15">#</text><text text-decoration="none" x="42" fill="#4b4b4b" font-size="10pt" font-family="noto_regular"  y="15"></text></g></g><g id="UXaNqiKzWWc"><g><path d="M 1400,295 L 1430,340" fill="none" stroke="#9A9A9A" stroke-width="2" stroke-linecap="round" stroke-linejoin="round"/></g></g><g id="r7QWuyeDypm"><g transform="translate(1230 499.99999999999983)"><path d="M 120,35 L 60,70 L 0,35 L 60,0 L 120,35 L 120,35 Z" fill="white" stroke="black" stroke-width="2" stroke-linecap="round" stroke-linejoin="round" stroke-dasharray="0 0"/></g><g transform="translate(1275, 525.4999999999998) rotate(0, 15, 9.5)" width="30" height="19"><text text-decoration="none" x="0.5" fill="black" font-size="10pt" font-family="lt_regular"  y="15">View</text><text text-decoration="none" x="29.5" fill="#4b4b4b" font-size="10pt" font-family="noto_regular"  y="15"></text></g></g><g id="WASikYBmEuN"><g><path d="M 1350,320 L 1349.9999999999998,399.9999999999999 Q 1349.9999999999998,409.9999999999999 1339.9999999999998,409.99999999999994 L 1320,410 L 1300,409.99999999999994 Q 1290,409.9999999999999 1290,419.9999999999999 L 1290,500" fill="none" stroke="#7E7E7E" stroke-width="2" stroke-linecap="round" stroke-linejoin="round"/></g></g><g id="BdAtDfnoNg9"><g transform="translate(1470 690)"><path d="M 120,35 L 60,70 L 0,35 L 60,0 L 120,35 L 120,35 Z" fill="white" stroke="black" stroke-width="2" stroke-linecap="round" stroke-linejoin="round" stroke-dasharray="0 0"/></g><g transform="translate(1494.5, 715.5) rotate(0, 35.5, 9.5)" width="71" height="19"><text text-decoration="none" x="1" fill="black" font-size="10pt" font-family="lt_regular"  y="15">Relationship</text><text text-decoration="none" x="70" fill="#4b4b4b" font-size="10pt" font-family="noto_regular"  y="15"></text></g></g><g id="cUn9hyJhrdb"><g><path d="M 1350,320 L 1349.9999999999998,495 Q 1349.9999999999998,505 1359.9999999999998,505 L 1440,505 L 1520,505 Q 1530,505 1530,515 L 1530,690" fill="none" stroke="#7E7E7E" stroke-width="2" stroke-linecap="round" stroke-linejoin="round"/></g></g><g id="52O4QI6LXg3"><g transform="translate(1240 669.9999999999999)"><rect x="0" y="0" width="100" height="50" fill="white" stroke="#356260" stroke-width="2" stroke-linecap="round" stroke-linejoin="round" stroke-dasharray="0 0"/></g><g transform="translate(1273, 685.4999999999999) rotate(0, 17, 9.5)" width="34" height="19"><text text-decoration="none" x="0" fill="black" font-size="10pt" font-family="lt_regular"  y="15">Entity</text><text text-decoration="none" x="35" fill="#4b4b4b" font-size="10pt" font-family="noto_regular"  y="15"></text></g></g><g id="HBiTH4lWggW"><g><path d="M 1290,570 L 1290,670" fill="none" stroke="#7E7E7E" stroke-width="2" stroke-linecap="round" stroke-linejoin="round"/></g></g><g id="LjSlgUgNRzP"><g transform="translate(1100 620)"><ellipse cx="50" cy="25" rx="50" ry="25" fill="white" stroke="black" stroke-width="2" stroke-linecap="round" stroke-linejoin="round" stroke-dasharray="0 0"/></g><g transform="translate(1130, 635.5) rotate(0, 20, 9.5)" width="40" height="19"><text text-decoration="none" x="0" fill="black" font-size="10pt" font-family="lt_regular"  y="15">Dish&#160;</text><text text-decoration="none" x="29" fill="black" font-size="10pt" font-family="lt_regular"  y="15">Id</text><text text-decoration="none" x="40" fill="#4b4b4b" font-size="10pt" font-family="noto_regular"  y="15"></text></g></g><g id="Zjbld6EGggQ"><g><path d="M 1240,695 L 1190,660" fill="none" stroke="#9A9A9A" stroke-width="2" stroke-linecap="round" stroke-linejoin="round"/></g></g><g id="L0dtaxvw0Ma"><g transform="translate(1100 700)"><ellipse cx="50" cy="25" rx="50" ry="25" fill="white" stroke="black" stroke-width="2" stroke-linecap="round" stroke-linejoin="round" stroke-dasharray="0 0"/></g><g transform="translate(1132.5, 715.5) rotate(0, 17.5, 9.5)" width="35" height="19"><text text-decoration="none" x="0.5" fill="black" font-size="10pt" font-family="lt_regular"  y="15">Name</text><text text-decoration="none" x="34.5" fill="#4b4b4b" font-size="10pt" font-family="noto_regular"  y="15"></text></g></g><g id="dgFgKA859nL"><g><path d="M 1240,695 L 1200,725" fill="none" stroke="#9A9A9A" stroke-width="2" stroke-linecap="round" stroke-linejoin="round"/></g></g><g id="hO8obhC6afp"><g transform="translate(1170 760)"><ellipse cx="50" cy="25" rx="50" ry="25" fill="white" stroke="black" stroke-width="2" stroke-linecap="round" stroke-linejoin="round" stroke-dasharray="0 0"/></g><g transform="translate(1205.5, 775.5) rotate(0, 14.5, 9.5)" width="29" height="19"><text text-decoration="none" x="0" fill="black" font-size="10pt" font-family="lt_regular"  y="15">Price</text><text text-decoration="none" x="29" fill="#4b4b4b" font-size="10pt" font-family="noto_regular"  y="15"></text></g></g><g id="VhVVP2jXDNh"><g><path d="M 1290,720 L 1260,770" fill="none" stroke="#9A9A9A" stroke-width="2" stroke-linecap="round" stroke-linejoin="round"/></g></g><g id="c0GHDu6dzfb"><g transform="translate(1310 760)"><ellipse cx="50" cy="25" rx="50" ry="25" fill="white" stroke="black" stroke-width="2" stroke-linecap="round" stroke-linejoin="round" stroke-dasharray="0 0"/></g><g transform="translate(1346, 775.5) rotate(0, 14, 9.5)" width="28" height="19"><text text-decoration="none" x="0" fill="black" font-size="10pt" font-family="lt_regular"  y="15">Type</text><text text-decoration="none" x="29" fill="#4b4b4b" font-size="10pt" font-family="noto_regular"  y="15"></text></g></g><g id="DNKkkwqzrKP"><g><path d="M 1290,720 L 1320,770" fill="none" stroke="#9A9A9A" stroke-width="2" stroke-linecap="round" stroke-linejoin="round"/></g></g><g id="YxQjO34yHRV"><g transform="translate(1480.0000000000005 890)"><rect x="0" y="0" width="100" height="50" fill="white" stroke="#356260" stroke-width="2" stroke-linecap="round" stroke-linejoin="round" stroke-dasharray="0 0"/></g><g transform="translate(1501.5000000000005, 905.5) rotate(0, 28.5, 9.5)" width="57" height="19"><text text-decoration="none" x="1" fill="black" font-size="10pt" font-family="lt_regular"  y="15">FeedBack</text><text text-decoration="none" x="56" fill="#4b4b4b" font-size="10pt" font-family="noto_regular"  y="15"></text></g></g><g id="4nkRZZCk3oi"><g><path d="M 1530,760 L 1530,815 Q 1530,815 1530,825 Q 1530.0000000000005,834.9999999999995 1530.0000000000005,835 L 1530,890" fill="none" stroke="#7E7E7E" stroke-width="2" stroke-linecap="round" stroke-linejoin="round"/></g></g><g id="Cytgs0jx3Og"><g transform="translate(1340 840)"><ellipse cx="50" cy="25" rx="50" ry="25" fill="white" stroke="black" stroke-width="2" stroke-linecap="round" stroke-linejoin="round" stroke-dasharray="0 0"/></g><g transform="translate(1368, 855.5) rotate(0, 22, 9.5)" width="44" height="19"><text text-decoration="none" x="0" fill="black" font-style="italic" font-size="10pt" font-family="lt_regular"  y="15">Cust&#160;</text><text text-decoration="none" x="30" fill="black" font-style="italic" font-size="10pt" font-family="lt_regular"  y="15">ID</text><text text-decoration="none" x="44" fill="#4b4b4b" font-size="10pt" font-family="noto_regular"  y="15"></text></g></g><g id="GXsgkJFNLWt"><g><path d="M 1480,915 L 1430,880" fill="none" stroke="#9A9A9A" stroke-width="2" stroke-linecap="round" stroke-linejoin="round"/></g></g><g id="lXF6DfeAeLA"><g transform="translate(1340 920)"><ellipse cx="50" cy="25" rx="50" ry="25" fill="white" stroke="black" stroke-width="2" stroke-linecap="round" stroke-linejoin="round" stroke-dasharray="0 0"/></g><g transform="translate(1369, 935.5) rotate(0, 21, 9.5)" width="42" height="19"><text text-decoration="none" x="0" fill="black" font-size="10pt" font-family="lt_regular"  y="15">Service</text><text text-decoration="none" x="42" fill="#4b4b4b" font-size="10pt" font-family="noto_regular"  y="15"></text></g></g><g id="utyCsg3XDAP"><g><path d="M 1480,915 L 1440,945" fill="none" stroke="#9A9A9A" stroke-width="2" stroke-linecap="round" stroke-linejoin="round"/></g></g><g id="BJsDBWJDFxE"><g transform="translate(1409.9999999999998 980.0000000000001)"><ellipse cx="50" cy="25" rx="50" ry="25" fill="white" stroke="black" stroke-width="2" stroke-linecap="round" stroke-linejoin="round" stroke-dasharray="0 0"/></g><g transform="translate(1427.9999999999998, 995.5) rotate(0, 32, 9.5)" width="64" height="19"><text text-decoration="none" x="0.5" fill="black" font-size="10pt" font-family="lt_regular"  y="15">Suggestion</text><text text-decoration="none" x="63.5" fill="#4b4b4b" font-size="10pt" font-family="noto_regular"  y="15"></text></g></g><g id="Q7pd28TCOJl"><g><path d="M 1530,940 L 1500,990" fill="none" stroke="#9A9A9A" stroke-width="2" stroke-linecap="round" stroke-linejoin="round"/></g></g><g id="tO6m6UXhyU6"><g transform="translate(1550 980.0000000000001)"><ellipse cx="50" cy="25" rx="50" ry="25" fill="white" stroke="black" stroke-width="2" stroke-linecap="round" stroke-linejoin="round" stroke-dasharray="0 0"/></g><g transform="translate(1570.5, 995.5) rotate(0, 29.5, 9.5)" width="59" height="19"><text text-decoration="none" x="0.5" fill="black" font-size="10pt" font-family="lt_regular"  y="15">Cleanness</text><text text-decoration="none" x="58.5" fill="#4b4b4b" font-size="10pt" font-family="noto_regular"  y="15"></text></g></g><g id="L9gPgGhlzjk"><g><path d="M 1530,940 L 1560,990" fill="none" stroke="#9A9A9A" stroke-width="2" stroke-linecap="round" stroke-linejoin="round"/></g></g><g id="TeRrAfxE8n5"><g transform="translate(1629.9999999999998 900)"><ellipse cx="50" cy="25" rx="50" ry="25" fill="white" stroke="black" stroke-width="2" stroke-linecap="round" stroke-linejoin="round" stroke-dasharray="0 0"/></g><g transform="translate(1640.4999999999998, 915.5) rotate(0, 39.5, 9.5)" width="79" height="19"><text text-decoration="none" x="2" fill="black" font-size="10pt" font-family="lt_regular"  y="15">Food&#160;</text><text text-decoration="none" x="33" fill="black" font-size="10pt" font-family="lt_regular"  y="15">Quality&#160;</text><text text-decoration="none" x="77" fill="#4b4b4b" font-size="10pt" font-family="noto_regular"  y="15"></text></g></g><g id="ePcDI2q9au6"><g><path d="M 1580,915 L 1630,925" fill="none" stroke="#9A9A9A" stroke-width="2" stroke-linecap="round" stroke-linejoin="round"/></g></g><g id="0QzHcz3Cv3g"><g transform="translate(330 400)"><path d="M 120,35 L 60,70 L 0,35 L 60,0 L 120,35 L 120,35 Z" fill="white" stroke="black" stroke-width="2" stroke-linecap="round" stroke-linejoin="round" stroke-dasharray="0 0"/></g><g transform="translate(373, 425.5) rotate(0, 17, 9.5)" width="34" height="19"><text text-decoration="none" x="0" fill="black" font-size="10pt" font-family="lt_regular"  y="15">keeps</text><text text-decoration="none" x="34" fill="#4b4b4b" font-size="10pt" font-family="noto_regular"  y="15"></text></g></g><g id="s2TYCm5Cj63"><g><path d="M 390,320 L 390,400" fill="none" stroke="#7E7E7E" stroke-width="2" stroke-linecap="round" stroke-linejoin="round"/></g></g><g id="de70aavlpVh"><g transform="translate(340 580)"><rect x="0" y="0" width="100" height="50" fill="white" stroke="#356260" stroke-width="2" stroke-linecap="round" stroke-linejoin="round" stroke-dasharray="0 0"/></g><g transform="translate(374.5, 595.5) rotate(0, 15.5, 9.5)" width="31" height="19"><text text-decoration="none" x="0" fill="black" font-size="10pt" font-family="lt_regular"  y="15">Store</text><text text-decoration="none" x="31" fill="#4b4b4b" font-size="10pt" font-family="noto_regular"  y="15"></text></g></g><g id="1ESFBIeUrLf"><g><path d="M 390,470 L 390,580" fill="none" stroke="#7E7E7E" stroke-width="2" stroke-linecap="round" stroke-linejoin="round"/></g></g><g id="KLl38lw3OPw"><g transform="translate(179.9999999999999 560)"><ellipse cx="50" cy="25" rx="50" ry="25" fill="white" stroke="black" stroke-width="2" stroke-linecap="round" stroke-linejoin="round" stroke-dasharray="0 0"/></g><g transform="translate(200.4999999999999, 575.5) rotate(0, 29.5, 9.5)" width="59" height="19"><text text-decoration="none" x="0" fill="black" font-size="10pt" font-family="lt_regular"  y="15">Vendor&#160;</text><text text-decoration="none" x="45" fill="black" font-size="10pt" font-family="lt_regular"  y="15">ID</text><text text-decoration="none" x="59" fill="#4b4b4b" font-size="10pt" font-family="noto_regular"  y="15"></text></g></g><g id="Xc4moaf7GFo"><g><path d="M 340,605 L 280,585" fill="none" stroke="#9A9A9A" stroke-width="2" stroke-linecap="round" stroke-linejoin="round"/></g></g><g id="fINBIBbcS1Y"><g transform="translate(200 640)"><ellipse cx="50" cy="25" rx="50" ry="25" fill="white" stroke="black" stroke-width="2" stroke-linecap="round" stroke-linejoin="round" stroke-dasharray="0 0"/></g><g transform="translate(232.5, 655.5) rotate(0, 17.5, 9.5)" width="35" height="19"><text text-decoration="none" x="0.5" fill="black" font-size="10pt" font-family="lt_regular"  y="15">Name</text><text text-decoration="none" x="34.5" fill="#4b4b4b" font-size="10pt" font-family="noto_regular"  y="15"></text></g></g><g id="KisXT2R9k6b"><g><path d="M 340,605 L 290,650" fill="none" stroke="#9A9A9A" stroke-width="2" stroke-linecap="round" stroke-linejoin="round"/></g></g><g id="AKwI0mfZFs0"><g transform="translate(290 690)"><ellipse cx="50" cy="25" rx="50" ry="25" fill="white" stroke="black" stroke-width="2" stroke-linecap="round" stroke-linejoin="round" stroke-dasharray="0 0"/></g><g transform="translate(320, 705.5) rotate(0, 20, 9.5)" width="40" height="19"><text text-decoration="none" x="6.5" fill="black" font-size="10pt" font-family="lt_regular"  y="14">Item&#160;</text><text text-decoration="none" x="14.5" fill="black" font-size="10pt" font-family="lt_regular"  y="33">Id</text><text text-decoration="none" x="25.5" fill="#4b4b4b" font-size="10pt" font-family="noto_regular"  y="33"></text></g></g><g id="foQ1PRTAxXM"><g><path d="M 390,630 L 360,692" fill="none" stroke="#9A9A9A" stroke-width="2" stroke-linecap="round" stroke-linejoin="round"/></g></g><g id="gGxvcvvPPeH"><g transform="translate(420 680)"><ellipse cx="50" cy="25" rx="50" ry="25" fill="white" stroke="black" stroke-width="2" stroke-linecap="round" stroke-linejoin="round" stroke-dasharray="0 0"/></g><g transform="translate(452, 695.5) rotate(0, 18, 9.5)" width="36" height="19"><text text-decoration="none" x="0" fill="black" font-size="10pt" font-family="lt_regular"  y="15">Status</text><text text-decoration="none" x="36" fill="#4b4b4b" font-size="10pt" font-family="noto_regular"  y="15"></text></g></g><g id="uuae5pkZXJC"><g><path d="M 390,630 L 430,690" fill="none" stroke="#9A9A9A" stroke-width="2" stroke-linecap="round" stroke-linejoin="round"/></g></g><g id="3EL7hHiWDnS"><g transform="translate(560 570)"><path d="M 120,35 L 60,70 L 0,35 L 60,0 L 120,35 L 120,35 Z" fill="white" stroke="black" stroke-width="2" stroke-linecap="round" stroke-linejoin="round" stroke-dasharray="0 0"/></g><g transform="translate(604, 595.5) rotate(0, 16, 9.5)" width="32" height="19"><text text-decoration="none" x="0" fill="black" font-size="10pt" font-family="lt_regular"  y="15">Gives</text><text text-decoration="none" x="33" fill="#4b4b4b" font-size="10pt" font-family="noto_regular"  y="15"></text></g></g><g id="gfzO5CNW0uK"><g><path d="M 440,605 L 560,605" fill="none" stroke="#7E7E7E" stroke-width="2" stroke-linecap="round" stroke-linejoin="round"/></g></g><g id="wFzhoE0BkdY"><g transform="translate(840 580)"><rect x="0" y="0" width="100" height="50" fill="white" stroke="#356260" stroke-width="2" stroke-linecap="round" stroke-linejoin="round" stroke-dasharray="0 0"/></g><g transform="translate(869, 595.5) rotate(0, 21, 9.5)" width="42" height="19"><text text-decoration="none" x="0" fill="black" font-size="10pt" font-family="lt_regular"  y="15">Vendor</text><text text-decoration="none" x="42" fill="#4b4b4b" font-size="10pt" font-family="noto_regular"  y="15"></text></g></g><g id="geVCeE3cHPj"><g><path d="M 680,605 L 840,605" fill="none" stroke="#7E7E7E" stroke-width="2" stroke-linecap="round" stroke-linejoin="round"/></g></g><g id="aEtwt4yzl99"><g transform="translate(690 650)"><ellipse cx="50" cy="25" rx="50" ry="25" fill="white" stroke="black" stroke-width="2" stroke-linecap="round" stroke-linejoin="round" stroke-dasharray="0 0"/></g><g transform="translate(716.5, 665.5) rotate(0, 23.5, 9.5)" width="47" height="19"><text text-decoration="none" x="0" fill="black" font-size="10pt" font-family="lt_regular"  y="15">Address</text><text text-decoration="none" x="47" fill="#4b4b4b" font-size="10pt" font-family="noto_regular"  y="15"></text></g></g><g id="BTNzsuzPuGa"><g><path d="M 840,605 L 780,660" fill="none" stroke="#9A9A9A" stroke-width="2" stroke-linecap="round" stroke-linejoin="round"/></g></g><g id="fYr8frfUMMO"><g transform="translate(750 730)"><ellipse cx="50" cy="25" rx="50" ry="25" fill="white" stroke="black" stroke-width="2" stroke-linecap="round" stroke-linejoin="round" stroke-dasharray="0 0"/></g><g transform="translate(793, 745.5) rotate(0, 7, 9.5)" width="14" height="19"><text text-decoration="none" x="0" fill="black" font-size="10pt" font-family="lt_regular"  y="15">ID</text><text text-decoration="none" x="14" fill="#4b4b4b" font-size="10pt" font-family="noto_regular"  y="15"></text></g></g><g id="F5LKuDL52tJ"><g><path d="M 890,630 L 840,740" fill="none" stroke="#9A9A9A" stroke-width="2" stroke-linecap="round" stroke-linejoin="round"/></g></g><g id="867pFR0F6pl"><g transform="translate(970 640)"><ellipse cx="50" cy="25" rx="50" ry="25" fill="white" stroke="black" stroke-width="2" stroke-linecap="round" stroke-linejoin="round" stroke-dasharray="0 0"/></g><g transform="translate(997.5, 655.5) rotate(0, 22.5, 9.5)" width="45" height="19"><text text-decoration="none" x="0.5" fill="black" font-size="10pt" font-family="lt_regular"  y="15">Phone#</text><text text-decoration="none" x="44.5" fill="#4b4b4b" font-size="10pt" font-family="noto_regular"  y="15"></text></g></g><g id="CMhv0aKXAX6"><g><path d="M 940,605 L 980,650" fill="none" stroke="#9A9A9A" stroke-width="2" stroke-linecap="round" stroke-linejoin="round"/></g></g><g id="dWjdXMUbBOh"><g transform="translate(900 700)"><ellipse cx="50" cy="25" rx="50" ry="25" fill="white" stroke="black" stroke-width="2" stroke-linecap="round" stroke-linejoin="round" stroke-dasharray="0 0"/></g><g transform="translate(932.5, 715.5) rotate(0, 17.5, 9.5)" width="35" height="19"><text text-decoration="none" x="0.5" fill="black" font-size="10pt" font-family="lt_regular"  y="15">Name</text><text text-decoration="none" x="34.5" fill="#4b4b4b" font-size="10pt" font-family="noto_regular"  y="15"></text></g></g><g id="ZsXyGI2cPZP"><g><path d="M 890,630 L 930,702" fill="none" stroke="#9A9A9A" stroke-width="2" stroke-linecap="round" stroke-linejoin="round"/></g></g><g id="sajSIvucuBi"><g transform="translate(470 390)"><path d="M 120,35 L 60,70 L 0,35 L 60,0 L 120,35 L 120,35 Z" fill="white" stroke="black" stroke-width="2" stroke-linecap="round" stroke-linejoin="round" stroke-dasharray="0 0"/></g><g transform="translate(507, 415.5) rotate(0, 23, 9.5)" width="46" height="19"><text text-decoration="none" x="0.5" fill="black" font-size="10pt" font-family="lt_regular"  y="15">Manges</text><text text-decoration="none" x="45.5" fill="#4b4b4b" font-size="10pt" font-family="noto_regular"  y="15"></text></g></g><g id="wKTWYLr18af"><g><path d="M 440,295 L 520,295 Q 530,295 530,305 L 530,390" fill="none" stroke="#7E7E7E" stroke-width="2" stroke-linecap="round" stroke-linejoin="round"/></g></g></svg>