<svg xmlns="http://www.w3.org/2000/svg" xmlns:svg="http://www.w3.org/2000/svg" xmlns:xlink="http://www.w3.org/1999/xlink" version="1.0" height="421.23328773578pt" width="1287.5833333333333pt" viewBox="51.15 507 1295.5833333333333 427.23328773578" ><defs><style type="text/css">
            @font-face {
                font-family: 'noto_regular';
                src: url('https://app.creately.com/diagram/assets/fonts/noto/noto-regular.woff') format('woff'),
                     url('https://app.creately.com/diagram/assets/fonts/noto/noto-regular.woff2') format('woff2');
                font-weight: normal;
                font-style: normal;
            }
        p {
            margin: 0;
        }
        </style></defs><defs><style>
            span{ display: inline-block; }
        </style></defs><g id="1iz6zhzolw"><g transform="translate(675 510)"><path d="M 0.5,0.24999975204467773 L 159.5,0.24999975204467773 L 159.5,44.749955615997315 L 0.5,44.749955615997315 Z" fill="rgb(255, 255, 255)" stroke="rgb(50, 152, 218)" stroke-width="1.5" vector-effect="non-scaling-stroke"/></g><g transform="translate(727.35, 519.5999997940062) rotate(0, 0, 0)" width="55" height="19"><text text-decoration="none" x="0" fill="#3a87bd" font-size="11pt" font-family="Lato"  y="17">School&#160;</text><text text-decoration="none" x="50" fill="#4b4b4b" font-size="10pt" font-family="noto_regular"  y="17"></text></g></g><g id="c6zjou2ggz"><g transform="translate(340 625)"><path d="M 0.5,0.24999975204467773 L 159.5,0.24999975204467773 L 159.5,44.749955615997315 L 0.5,44.749955615997315 Z" fill="rgb(255, 255, 255)" stroke="rgb(50, 152, 218)" stroke-width="1.5" vector-effect="non-scaling-stroke"/></g><g transform="translate(369.6, 634.5999997940062) rotate(0, 0, 0)" width="109" height="19"><text text-decoration="none" x="0" fill="#3a87bd" font-size="11pt" font-family="Lato"  y="17">Teacher&#160;</text><text text-decoration="none" x="58" fill="#3a87bd" font-size="11pt" font-family="Lato"  y="17">Login&#160;</text><text text-decoration="none" x="100" fill="#4b4b4b" font-size="10pt" font-family="noto_regular"  y="17"></text></g></g><g id="ncq4h236fu"><g transform="translate(530 625)"><path d="M 0.5,0.24999975204467773 L 159.5,0.24999975204467773 L 159.5,44.749955615997315 L 0.5,44.749955615997315 Z" fill="rgb(255, 255, 255)" stroke="rgb(50, 152, 218)" stroke-width="1.5" vector-effect="non-scaling-stroke"/></g><g transform="translate(581.25, 634.5999997940062) rotate(0, 0, 0)" width="58" height="19"><text text-decoration="none" x="0" fill="#3a87bd" font-size="11pt" font-family="Lato"  y="17">Gallery&#160;</text><text text-decoration="none" x="53" fill="#4b4b4b" font-size="10pt" font-family="noto_regular"  y="17"></text></g></g><g id="z5yzoc7n7j"><g transform="translate(720 625)"><path d="M 0.5,0.24999975204467773 L 159.5,0.24999975204467773 L 159.5,44.749955615997315 L 0.5,44.749955615997315 Z" fill="rgb(255, 255, 255)" stroke="rgb(50, 152, 218)" stroke-width="1.5" vector-effect="non-scaling-stroke"/></g><g transform="translate(751.05, 634.5999997940062) rotate(0, 0, 0)" width="107" height="19"><text text-decoration="none" x="0" fill="#3a87bd" font-size="11pt" font-family="Lato"  y="17">Parents&#160;</text><text text-decoration="none" x="56" fill="#3a87bd" font-size="11pt" font-family="Lato"  y="17">Login&#160;</text><text text-decoration="none" x="98" fill="#4b4b4b" font-size="10pt" font-family="noto_regular"  y="17"></text></g></g><g id="1nb5sp0k9i"><g transform="translate(905 625)"><path d="M 0.5,0.24999975204467773 L 159.5,0.24999975204467773 L 159.5,44.749955615997315 L 0.5,44.749955615997315 Z" fill="rgb(255, 255, 255)" stroke="rgb(50, 152, 218)" stroke-width="1.5" vector-effect="non-scaling-stroke"/></g><g transform="translate(953.6, 634.5999997940062) rotate(0, 0, 0)" width="63" height="19"><text text-decoration="none" x="0" fill="#3a87bd" font-size="11pt" font-family="Lato"  y="17">Contact&#160;</text><text text-decoration="none" x="56" fill="#4b4b4b" font-size="10pt" font-family="noto_regular"  y="17"></text></g></g><g id="25x0wxsx4f"><g transform="translate(1090 625)"><path d="M 0.5,0.24999975204467773 L 159.5,0.24999975204467773 L 159.5,44.749955615997315 L 0.5,44.749955615997315 Z" fill="rgb(255, 255, 255)" stroke="rgb(50, 152, 218)" stroke-width="1.5" vector-effect="non-scaling-stroke"/></g><g transform="translate(1120.65, 634.5999997940062) rotate(0, 0, 0)" width="112" height="19"><text text-decoration="none" x="0" fill="#3a87bd" font-size="11pt" font-family="Lato"  y="17">Student&#160;</text><text text-decoration="none" x="57" fill="#3a87bd" font-size="11pt" font-family="Lato"  y="17">Login&#160;</text><text text-decoration="none" x="99" fill="#4b4b4b" font-size="10pt" font-family="noto_regular"  y="17"></text></g></g><g id="1n7qnv3yu1"><g><path d="M 452,590 L 1185,590" fill="none" stroke="#a0a0a0" stroke-width="1.5" stroke-linecap="round" stroke-linejoin="round"/></g></g><g id="2pkn08foh8"><g><path d="M 755,555 L 755,590" fill="none" stroke="#a0a0a0" stroke-width="1.5" stroke-linecap="round" stroke-linejoin="round"/></g></g><g id="1ubpm8x557"><g><path d="M 415,590 L 455,590" fill="none" stroke="#a0a0a0" stroke-width="1.5" stroke-linecap="round" stroke-linejoin="round"/></g></g><g id="1mrqbllcjh"><g><path d="M 415,589 L 415,625" fill="none" stroke="#a0a0a0" stroke-width="1.5" stroke-linecap="round" stroke-linejoin="round"/></g></g><g id="c7zfivy753"><g><path d="M 605,590 L 605,625" fill="none" stroke="#a0a0a0" stroke-width="1.5" stroke-linecap="round" stroke-linejoin="round"/></g></g><g id="b9ysij6gpe"><g><path d="M 800,590 L 800,625" fill="none" stroke="#a0a0a0" stroke-width="1.5" stroke-linecap="round" stroke-linejoin="round"/></g></g><g id="2866jyh4ix"><g><path d="M 1185,590 L 1185,625" fill="none" stroke="#a0a0a0" stroke-width="1.5" stroke-linecap="round" stroke-linejoin="round"/></g></g><g id="1gkw890mey"><g><path d="M 990,590 L 990,625" fill="none" stroke="#a0a0a0" stroke-width="1.5" stroke-linecap="round" stroke-linejoin="round"/></g></g><g id="1sqvm8wzl2"><g><path d="M 413,671 L 413,795" fill="none" stroke="#a0a0a0" stroke-width="1.5" stroke-linecap="round" stroke-linejoin="round"/></g></g><g id="x6hj8ltdym"><g><path d="M 413,590 L 241,592" fill="none" stroke="#a0a0a0" stroke-width="1.5" stroke-linecap="round" stroke-linejoin="round"/></g></g><g id="2e2f5jwzb8"><g><path d="M 243,592 L 243,628" fill="none" stroke="#a0a0a0" stroke-width="1.5" stroke-linecap="round" stroke-linejoin="round"/></g></g><g id="9ry9mg65rj"><g transform="translate(152.43333333333334 624.2)"><path d="M 0.5,0.24999975204467773 L 159.5,0.24999975204467773 L 159.5,44.749955615997315 L 0.5,44.749955615997315 Z" fill="rgb(255, 255, 255)" stroke="rgb(50, 152, 218)" stroke-width="1.5" vector-effect="non-scaling-stroke"/></g><g transform="translate(196.43333333333334, 633.7999997940062) rotate(0, 0, 0)" width="74" height="19"><text text-decoration="none" x="0" fill="#3a87bd" font-size="11pt" font-family="Lato"  y="17">About&#160;</text><text text-decoration="none" x="46" fill="#3a87bd" font-size="11pt" font-family="Lato"  y="17">Us&#160;</text><text text-decoration="none" x="68" fill="#4b4b4b" font-size="10pt" font-family="noto_regular"  y="17"></text></g></g><g id="20z33wtszz"><g><path d="M 232,670 L 232,794" fill="none" stroke="#a0a0a0" stroke-width="1.5" stroke-linecap="round" stroke-linejoin="round"/></g></g><g id="1x5pxe4gqw"><g><path d="M 802,672 L 802,796" fill="none" stroke="#a0a0a0" stroke-width="1.5" stroke-linecap="round" stroke-linejoin="round"/></g></g><g id="1o0joqrtb5"><g><path d="M 330,795 L 500,795" fill="none" stroke="#a0a0a0" stroke-width="1.5" stroke-linecap="round" stroke-linejoin="round"/></g></g><g id="3hb4pr0802"><g><path d="M 329.3333333333333,792 L 329.3333333333333,792" fill="none" stroke="#a0a0a0" stroke-width="1.5" stroke-linecap="round" stroke-linejoin="round"/></g></g><g id="crz8qei4h8"><g><path d="M 331,794 L 330,875" fill="none" stroke="#a0a0a0" stroke-width="1.5" stroke-linecap="round" stroke-linejoin="round"/></g></g><g id="2aszquwtdr"><g><path d="M 413,796 L 412,877" fill="none" stroke="#a0a0a0" stroke-width="1.5" stroke-linecap="round" stroke-linejoin="round"/></g></g><g id="2zq8m4xklm"><g><path d="M 498,797 L 497,878" fill="none" stroke="#a0a0a0" stroke-width="1.5" stroke-linecap="round" stroke-linejoin="round"/></g></g><g id="20xukyghl6"><g transform="translate(263.25 872.75)"><path d="M 0.3035416901111603,0.2499997466802597 L 96.82979914546013,0.2499997466802597 L 96.82979914546013,44.74995465576649 L 0.3035416901111603,44.74995465576649 Z" fill="rgb(255, 255, 255)" stroke="rgb(50, 152, 218)" stroke-width="1.5" vector-effect="non-scaling-stroke"/></g><g transform="translate(265.775, 872.85) rotate(0, 46, 0)" width="92" height="37"><text text-decoration="none" x="30" fill="#3a87bd" font-size="11pt" font-family="Lato"  y="16">Take</text><text text-decoration="none" x="62" fill="#3a87bd" font-size="11pt" font-family="Lato"  y="16"></text><text text-decoration="none" x="5" fill="#3a87bd" font-size="11pt" font-family="Lato"  y="38">Attendance&#160;</text><text text-decoration="none" x="87" fill="#4b4b4b" font-size="10pt" font-family="noto_regular"  y="38"></text></g></g><g id="2gvzirrvyw"><g transform="translate(464.45 874.6666666666666)"><path d="M 0.28208333253860474,0.2499997466802597 L 89.98458307981491,0.2499997466802597 L 89.98458307981491,44.74995465576649 L 0.28208333253860474,44.74995465576649 Z" fill="rgb(255, 255, 255)" stroke="rgb(50, 152, 218)" stroke-width="1.5" vector-effect="non-scaling-stroke"/></g><g transform="translate(467.05, 874.7666666666667) rotate(0, 42.5, 0)" width="85" height="37"><text text-decoration="none" x="28.5" fill="#3a87bd" font-size="11pt" font-family="Lato"  y="16">Add</text><text text-decoration="none" x="56.5" fill="#3a87bd" font-size="11pt" font-family="Lato"  y="16"></text><text text-decoration="none" x="2" fill="#3a87bd" font-size="11pt" font-family="Lato"  y="38">Homework&#160;</text><text text-decoration="none" x="83" fill="#4b4b4b" font-size="10pt" font-family="noto_regular"  y="38"></text></g></g><g id="1cp072a801"><g transform="translate(367.6333333333334 874)"><path d="M 0.28208333253860474,0.2499997466802597 L 89.98458307981491,0.2499997466802597 L 89.98458307981491,44.74995465576649 L 0.28208333253860474,44.74995465576649 Z" fill="rgb(255, 255, 255)" stroke="rgb(50, 152, 218)" stroke-width="1.5" vector-effect="non-scaling-stroke"/></g><g transform="translate(366.73333333333335, 874.1) rotate(0, 46, 0)" width="92" height="37"><text text-decoration="none" x="21" fill="#3a87bd" font-size="11pt" font-family="Lato"  y="16">Update</text><text text-decoration="none" x="71" fill="#3a87bd" font-size="11pt" font-family="Lato"  y="16"></text><text text-decoration="none" x="5" fill="#3a87bd" font-size="11pt" font-family="Lato"  y="38">Attendance&#160;</text><text text-decoration="none" x="87" fill="#4b4b4b" font-size="10pt" font-family="noto_regular"  y="38"></text></g></g><g id="34e2ltatk6"><g><path d="M 715.3333333333333,799 L 715.3333333333333,799" fill="none" stroke="#a0a0a0" stroke-width="1.5" stroke-linecap="round" stroke-linejoin="round"/></g></g><g id="1afmhtlx4o"><g><path d="M 716,800 L 886,800" fill="none" stroke="#a0a0a0" stroke-width="1.5" stroke-linecap="round" stroke-linejoin="round"/></g></g><g id="4tbrw1cvvv"><g><path d="M 715.3333333333333,799 L 715.3333333333333,799" fill="none" stroke="#a0a0a0" stroke-width="1.5" stroke-linecap="round" stroke-linejoin="round"/></g></g><g id="24t87annwf"><g><path d="M 885,802 L 884,883" fill="none" stroke="#a0a0a0" stroke-width="1.5" stroke-linecap="round" stroke-linejoin="round"/></g></g><g id="103n0060aw"><g><path d="M 802,802 L 801,883" fill="none" stroke="#a0a0a0" stroke-width="1.5" stroke-linecap="round" stroke-linejoin="round"/></g></g><g id="199t65jpkm"><g><path d="M 717,802 L 716,883" fill="none" stroke="#a0a0a0" stroke-width="1.5" stroke-linecap="round" stroke-linejoin="round"/></g></g><g id="2hkdxhtkki"><g transform="translate(666.9833333333332 885.25)"><path d="M 0.3035416901111603,0.2499997466802597 L 96.82979914546013,0.2499997466802597 L 96.82979914546013,44.74995465576649 L 0.3035416901111603,44.74995465576649 Z" fill="rgb(255, 255, 255)" stroke="rgb(50, 152, 218)" stroke-width="1.5" vector-effect="non-scaling-stroke"/></g><g transform="translate(692.3333333333333, 894.85) rotate(0, 0, 0)" width="39" height="19"><text text-decoration="none" x="0" fill="#3a87bd" font-size="11pt" font-family="Lato"  y="17">Fees&#160;</text><text text-decoration="none" x="35" fill="#4b4b4b" font-size="10pt" font-family="noto_regular"  y="17"></text></g></g><g id="dynyj2ergm"><g transform="translate(866.2000000000002 885.5833333333334)"><path d="M 0.28208333253860474,0.2499997466802597 L 89.98458307981491,0.2499997466802597 L 89.98458307981491,44.74995465576649 L 0.28208333253860474,44.74995465576649 Z" fill="rgb(255, 255, 255)" stroke="rgb(50, 152, 218)" stroke-width="1.5" vector-effect="non-scaling-stroke"/></g><g transform="translate(868.5000000000001, 895.1833333333334) rotate(0, 0, 0)" width="92" height="19"><text text-decoration="none" x="0" fill="#3a87bd" font-size="11pt" font-family="Lato"  y="17">Attendance&#160;</text><text text-decoration="none" x="82" fill="#4b4b4b" font-size="10pt" font-family="noto_regular"  y="17"></text></g></g><g id="2cm6h2o5db"><g transform="translate(769.35 886.2333333333332)"><path d="M 0.28208333253860474,0.2499997466802597 L 89.98458307981491,0.2499997466802597 L 89.98458307981491,44.74995465576649 L 0.28208333253860474,44.74995465576649 Z" fill="rgb(255, 255, 255)" stroke="rgb(50, 152, 218)" stroke-width="1.5" vector-effect="non-scaling-stroke"/></g><g transform="translate(788.3000000000001, 895.8333333333333) rotate(0, 0, 0)" width="51" height="19"><text text-decoration="none" x="0" fill="#3a87bd" font-size="11pt" font-family="Lato"  y="17">Result&#160;</text><text text-decoration="none" x="46" fill="#4b4b4b" font-size="10pt" font-family="noto_regular"  y="17"></text></g></g><g id="1okmkirp0v"><g><path d="M 745.3333333333333,829 L 745.3333333333333,829" fill="none" stroke="#a0a0a0" stroke-width="1.5" stroke-linecap="round" stroke-linejoin="round"/></g></g><g id="110hi0tzdu"><g><path d="M 132,795 L 235,795" fill="none" stroke="#a0a0a0" stroke-width="1.5" stroke-linecap="round" stroke-linejoin="round"/></g></g><g id="3hzr71qzyb"><g><path d="M 134,797 L 135,840" fill="none" stroke="#a0a0a0" stroke-width="1.5" stroke-linecap="round" stroke-linejoin="round"/></g></g><g id="2k0axu87so"><g><path d="M 232,798 L 233,841" fill="none" stroke="#a0a0a0" stroke-width="1.5" stroke-linecap="round" stroke-linejoin="round"/></g></g><g id="4hgywn221h"><g transform="translate(159.8 836.0666666666666)"><path d="M 0.3035416901111603,0.2499997466802597 L 96.82979914546013,0.2499997466802597 L 96.82979914546013,44.74995465576649 L 0.3035416901111603,44.74995465576649 Z" fill="rgb(255, 255, 255)" stroke="rgb(50, 152, 218)" stroke-width="1.5" vector-effect="non-scaling-stroke"/></g><g transform="translate(169.32500000000002, 836.1666666666666) rotate(0, 39, 0)" width="78" height="37"><text text-decoration="none" x="2.5" fill="#3a87bd" font-size="11pt" font-family="Lato"  y="16">Admission</text><text text-decoration="none" x="75.5" fill="#3a87bd" font-size="11pt" font-family="Lato"  y="16"></text><text text-decoration="none" x="12.5" fill="#3a87bd" font-size="11pt" font-family="Lato"  y="38">Inquiry&#160;</text><text text-decoration="none" x="65.5" fill="#4b4b4b" font-size="10pt" font-family="noto_regular"  y="38"></text></g></g><g id="24tb2lleqd"><g transform="translate(56.15 835.8666666666668)"><path d="M 0.28208333253860474,0.2499997466802597 L 89.98458307981491,0.2499997466802597 L 89.98458307981491,44.74995465576649 L 0.28208333253860474,44.74995465576649 Z" fill="rgb(255, 255, 255)" stroke="rgb(50, 152, 218)" stroke-width="1.5" vector-effect="non-scaling-stroke"/></g><g transform="translate(62.275000000000006, 835.9666666666668) rotate(0, 39, 0)" width="78" height="37"><text text-decoration="none" x="2.5" fill="#3a87bd" font-size="11pt" font-family="Lato"  y="16">Admission</text><text text-decoration="none" x="75.5" fill="#3a87bd" font-size="11pt" font-family="Lato"  y="16"></text><text text-decoration="none" x="18.5" fill="#3a87bd" font-size="11pt" font-family="Lato"  y="38">Form&#160;</text><text text-decoration="none" x="59.5" fill="#4b4b4b" font-size="10pt" font-family="noto_regular"  y="38"></text></g></g><g id="8gslbvarqn"><g><path d="M 745.3333333333333,829 L 745.3333333333333,829" fill="none" stroke="#a0a0a0" stroke-width="1.5" stroke-linecap="round" stroke-linejoin="round"/></g></g><g id="1meaohzkjl"><g><path d="M 745.3333333333333,829 L 745.3333333333333,829" fill="none" stroke="#a0a0a0" stroke-width="1.5" stroke-linecap="round" stroke-linejoin="round"/></g></g><g id="1vka8upzl1"><g><path d="M 775.3333333333333,859 L 775.3333333333333,859" fill="none" stroke="#a0a0a0" stroke-width="1.5" stroke-linecap="round" stroke-linejoin="round"/></g></g><g id="1wx43nymrv"><g><path d="M 745.3333333333333,829 L 745.3333333333333,829" fill="none" stroke="#a0a0a0" stroke-width="1.5" stroke-linecap="round" stroke-linejoin="round"/></g></g><g id="740lndip0r"><g><path d="M 1099,801 L 1269,801" fill="none" stroke="#a0a0a0" stroke-width="1.5" stroke-linecap="round" stroke-linejoin="round"/></g></g><g id="2jp5kv1op1"><g><path d="M 745.3333333333333,829 L 745.3333333333333,829" fill="none" stroke="#a0a0a0" stroke-width="1.5" stroke-linecap="round" stroke-linejoin="round"/></g></g><g id="11w4w242dp"><g><path d="M 1192,804 L 1191,885" fill="none" stroke="#a0a0a0" stroke-width="1.5" stroke-linecap="round" stroke-linejoin="round"/></g></g><g id="3yvjryuuou"><g><path d="M 1103,803 L 1102,884" fill="none" stroke="#a0a0a0" stroke-width="1.5" stroke-linecap="round" stroke-linejoin="round"/></g></g><g id="nflkpbrkew"><g><path d="M 1267,803 L 1266,884" fill="none" stroke="#a0a0a0" stroke-width="1.5" stroke-linecap="round" stroke-linejoin="round"/></g></g><g id="y0lne299fq"><g transform="translate(1050.1833333333334 884.25)"><path d="M 0.3035416901111603,0.2499997466802597 L 96.82979914546013,0.2499997466802597 L 96.82979914546013,44.74995465576649 L 0.3035416901111603,44.74995465576649 Z" fill="rgb(255, 255, 255)" stroke="rgb(50, 152, 218)" stroke-width="1.5" vector-effect="non-scaling-stroke"/></g><g transform="translate(1055.6333333333334, 893.85) rotate(0, 0, 0)" width="87" height="19"><text text-decoration="none" x="0" fill="#3a87bd" font-size="11pt" font-family="Lato"  y="17">HomeWork&#160;</text><text text-decoration="none" x="83" fill="#4b4b4b" font-size="10pt" font-family="noto_regular"  y="17"></text></g></g><g id="2ponj5wyr9"><g transform="translate(1249.4333333333334 884.5)"><path d="M 0.28208333253860474,0.2499997466802597 L 89.98458307981491,0.2499997466802597 L 89.98458307981491,44.74995465576649 L 0.28208333253860474,44.74995465576649 Z" fill="rgb(255, 255, 255)" stroke="rgb(50, 152, 218)" stroke-width="1.5" vector-effect="non-scaling-stroke"/></g><g transform="translate(1251.7333333333333, 894.1) rotate(0, 0, 0)" width="92" height="19"><text text-decoration="none" x="0" fill="#3a87bd" font-size="11pt" font-family="Lato"  y="17">Attendance&#160;</text><text text-decoration="none" x="82" fill="#4b4b4b" font-size="10pt" font-family="noto_regular"  y="17"></text></g></g><g id="8jsijnh9yj"><g transform="translate(1152.5833333333335 885.25)"><path d="M 0.28208333253860474,0.2499997466802597 L 89.98458307981491,0.2499997466802597 L 89.98458307981491,44.74995465576649 L 0.28208333253860474,44.74995465576649 Z" fill="rgb(255, 255, 255)" stroke="rgb(50, 152, 218)" stroke-width="1.5" vector-effect="non-scaling-stroke"/></g><g transform="translate(1171.5333333333335, 894.85) rotate(0, 0, 0)" width="51" height="19"><text text-decoration="none" x="0" fill="#3a87bd" font-size="11pt" font-family="Lato"  y="17">Result&#160;</text><text text-decoration="none" x="46" fill="#4b4b4b" font-size="10pt" font-family="noto_regular"  y="17"></text></g></g><g id="10pizlw5dc"><g><path d="M 775.3333333333333,859 L 775.3333333333333,859" fill="none" stroke="#a0a0a0" stroke-width="1.5" stroke-linecap="round" stroke-linejoin="round"/></g></g><g id="2pcwnomtoy"><g><path d="M 775.3333333333333,859 L 775.3333333333333,859" fill="none" stroke="#a0a0a0" stroke-width="1.5" stroke-linecap="round" stroke-linejoin="round"/></g></g><g id="t108ufl4d0"><g><path d="M 775.3333333333333,859 L 775.3333333333333,859" fill="none" stroke="#a0a0a0" stroke-width="1.5" stroke-linecap="round" stroke-linejoin="round"/></g></g><g id="2jr0zyinct"><g><path d="M 805.3333333333333,889 L 805.3333333333333,889" fill="none" stroke="#a0a0a0" stroke-width="1.5" stroke-linecap="round" stroke-linejoin="round"/></g></g><g id="1vcyb1r6kd"><g><path d="M 1184,673 L 1184,797" fill="none" stroke="#a0a0a0" stroke-width="1.5" stroke-linecap="round" stroke-linejoin="round"/></g></g></svg>