<svg xmlns="http://www.w3.org/2000/svg" xmlns:svg="http://www.w3.org/2000/svg" xmlns:xlink="http://www.w3.org/1999/xlink" version="1.0" height="548.806pt" width="568.3972064437866pt" viewBox="516.8969437179566 528 576.3972064437866 554.806" ><defs><style type="text/css">
            @font-face {
                font-family: 'noto_regular';
                src: url('https://app.creately.com/diagram/assets/fonts/noto/noto-regular.woff') format('woff'),
                     url('https://app.creately.com/diagram/assets/fonts/noto/noto-regular.woff2') format('woff2');
                font-weight: normal;
                font-style: normal;
            }
        p {
            margin: 0;
        }
        </style></defs><defs><style>
            span{ display: inline-block; }
        </style></defs><g id="1ltj49htrh"><g transform="translate(675.05 555)"><rect x="0" y="0" width="415.24415016174316" height="445.943284034729" fill="rgba(255,255,255,1)" stroke="#003494" stroke-width="2" stroke-linecap="round" stroke-linejoin="round"/></g><g transform="translate(860.1720750808715, 565) rotate(0, 22.5, 0)" width="45" height="18"><text text-decoration="none" x="1" fill="rgb(84, 84, 84)" font-size="10pt" font-family="noto_regular"  y="15">System</text><text text-decoration="none" x="44" fill="#4b4b4b" font-size="10pt" font-family="noto_regular"  y="15"></text></g><g transform="translate(772.1720750808715, 531) rotate(0, 110.5, 19)" width="221" height="19"><text text-decoration="none" x="6" fill="rgb(20, 56, 114)" font-size="9pt" font-family="Arial"  y="15">RESTAURANT&#160;</text><text text-decoration="none" x="84" fill="rgb(20, 56, 114)" font-size="9pt" font-family="Arial"  y="15">MANAGEMENT&#160;</text><text text-decoration="none" x="170" fill="rgb(20, 56, 114)" font-size="9pt" font-family="Arial"  y="15">SYSTEM</text><text text-decoration="none" x="215" fill="#4b4b4b" font-size="10pt" font-family="noto_regular"  y="15"></text></g></g><g id="24q8hgga57"><g transform="translate(740.05 560)"><ellipse cx="30.50000089406967" cy="18.00000035762787" rx="30.50000089406967" ry="18.00000035762787" fill="rgba(255,255,255,1)" stroke="#5e5ca7" stroke-width="1.5" stroke-linecap="round" stroke-linejoin="round"/></g><g transform="translate(756.0500008940696, 568.5000003576279) rotate(0, 14.5, 9.5)" width="29" height="19"><text text-decoration="none" x="1" fill="rgb(0, 0, 0)" font-size="9pt" font-family="Arial"  y="15">login</text><text text-decoration="none" x="28" fill="#4b4b4b" font-size="10pt" font-family="noto_regular"  y="15"></text></g></g><g id="iaw7fapzwa"><g transform="translate(975 750) rotate(-7.008659753391018e-15)"><ellipse cx="32.29975128173828" cy="19.666114807128906" rx="32.29975128173828" ry="19.666114807128906" fill="rgba(255,255,255,1)" stroke="#5e5ca7" stroke-width="1.5" stroke-linecap="round" stroke-linejoin="round"/></g><g transform="translate(977.7997512817383, 760.1661148071289) rotate(0, 29.5, 9.5)" width="59" height="19"><text text-decoration="none" x="4" fill="rgb(0, 0, 0)" font-size="9pt" font-family="Arial"  y="15">edit&#160;</text><text text-decoration="none" x="27" fill="rgb(0, 0, 0)" font-size="9pt" font-family="Arial"  y="15">order</text><text text-decoration="none" x="55" fill="#4b4b4b" font-size="10pt" font-family="noto_regular"  y="15"></text></g></g><g id="1teldpsu0h"><g transform="translate(800.05 875) rotate(-5.8436230624099996e-15)"><ellipse cx="38.7047301530838" cy="21.6113960146904" rx="38.7047301530838" ry="21.6113960146904" fill="rgba(255,255,255,1)" stroke="#5e5ca7" stroke-width="1.5" stroke-linecap="round" stroke-linejoin="round"/></g><g transform="translate(804.7547301530838, 879.6113960146904) rotate(0, 34, 17)" width="68" height="34"><text text-decoration="none" x="10.5" fill="rgb(0, 0, 0)" font-size="9pt" font-family="Arial"  y="11">generate&#160;</text><text text-decoration="none" x="3" fill="rgb(0, 0, 0)" font-size="9pt" font-family="Arial"  y="30">notification</text><text text-decoration="none" x="65" fill="#4b4b4b" font-size="10pt" font-family="noto_regular"  y="30"></text></g></g><g id="acmsbrisva"><g transform="translate(795.05 755)"><ellipse cx="38.00051572918892" cy="22.5101318359375" rx="38.00051572918892" ry="22.5101318359375" fill="rgba(255,255,255,1)" stroke="#5e5ca7" stroke-width="1.5" stroke-linecap="round" stroke-linejoin="round"/></g><g transform="translate(799.0505157291889, 760.5101318359375) rotate(0, 34, 17)" width="68" height="34"><text text-decoration="none" x="15.5" fill="rgb(0, 0, 0)" font-size="9pt" font-family="Arial"  y="11">recieve&#160;</text><text text-decoration="none" x="3" fill="rgb(0, 0, 0)" font-size="9pt" font-family="Arial"  y="30">notification</text><text text-decoration="none" x="65" fill="#4b4b4b" font-size="10pt" font-family="noto_regular"  y="30"></text></g></g><g id="5q17nktqco"><g transform="translate(980 690)"><ellipse cx="33.000225841999054" cy="20.500137358903885" rx="33.000225841999054" ry="20.500137358903885" fill="rgba(255,255,255,1)" stroke="#5e5ca7" stroke-width="1.5" stroke-linecap="round" stroke-linejoin="round"/></g><g transform="translate(982.000225841999, 701.0001373589039) rotate(0, 31, 9.5)" width="62" height="19"><text text-decoration="none" x="4" fill="rgb(0, 0, 0)" font-size="9pt" font-family="Arial"  y="15">edit&#160;</text><text text-decoration="none" x="27" fill="rgb(0, 0, 0)" font-size="9pt" font-family="Arial"  y="15">menu</text><text text-decoration="none" x="58" fill="#4b4b4b" font-size="10pt" font-family="noto_regular"  y="15"></text></g></g><g id="q8om6hrpmr"><g transform="translate(800.05 650)"><ellipse cx="35.499664306640625" cy="22.999725341796875" rx="35.499664306640625" ry="22.999725341796875" fill="rgba(255,255,255,1)" stroke="#5e5ca7" stroke-width="1.5" stroke-linecap="round" stroke-linejoin="round"/></g><g transform="translate(802.5496643066406, 663.4997253417969) rotate(0, 33, 9.5)" width="66" height="19"><text text-decoration="none" x="4" fill="rgb(0, 0, 0)" font-size="9pt" font-family="Arial"  y="15">view&#160;</text><text text-decoration="none" x="31" fill="rgb(0, 0, 0)" font-size="9pt" font-family="Arial"  y="15">menu</text><text text-decoration="none" x="62" fill="#4b4b4b" font-size="10pt" font-family="noto_regular"  y="15"></text></g></g><g id="1dq0acod3j"><g transform="translate(965 560)"><ellipse cx="28.000190883874893" cy="20.500137358903885" rx="28.000190883874893" ry="20.500137358903885" fill="rgba(255,255,255,1)" stroke="#5e5ca7" stroke-width="1.5" stroke-linecap="round" stroke-linejoin="round"/></g><g transform="translate(970.5001908838749, 571.0001373589039) rotate(0, 22.5, 9.5)" width="45" height="19"><text text-decoration="none" x="2.5" fill="rgb(0, 0, 0)" font-size="9pt" font-family="Arial"  y="15">sign&#160;</text><text text-decoration="none" x="28.5" fill="rgb(0, 0, 0)" font-size="9pt" font-family="Arial"  y="15">up</text><text text-decoration="none" x="42.5" fill="#4b4b4b" font-size="10pt" font-family="noto_regular"  y="15"></text></g></g><g id="24tg9pxa1y"><g transform="translate(800.05 700)"><ellipse cx="35.499664306640625" cy="22.999725341796875" rx="35.499664306640625" ry="22.999725341796875" fill="rgba(255,255,255,1)" stroke="#5e5ca7" stroke-width="1.5" stroke-linecap="round" stroke-linejoin="round"/></g><g transform="translate(804.0496643066406, 713.4997253417969) rotate(0, 31.5, 9.5)" width="63" height="19"><text text-decoration="none" x="4" fill="rgb(0, 0, 0)" font-size="9pt" font-family="Arial"  y="15">view&#160;</text><text text-decoration="none" x="31" fill="rgb(0, 0, 0)" font-size="9pt" font-family="Arial"  y="15">order</text><text text-decoration="none" x="59" fill="#4b4b4b" font-size="10pt" font-family="noto_regular"  y="15"></text></g></g><g id="2nl2r443f8"><g transform="translate(800.05 810)"><ellipse cx="35.499664306640625" cy="22.999725341796875" rx="35.499664306640625" ry="22.999725341796875" fill="rgba(255,255,255,1)" stroke="#5e5ca7" stroke-width="1.5" stroke-linecap="round" stroke-linejoin="round"/></g><g transform="translate(810.5496643066406, 823.4997253417969) rotate(0, 25, 9.5)" width="50" height="19"><text text-decoration="none" x="2.5" fill="rgb(0, 0, 0)" font-size="9pt" font-family="Arial"  y="15">clear&#160;</text><text text-decoration="none" x="31.5" fill="rgb(0, 0, 0)" font-size="9pt" font-family="Arial"  y="15">bill</text><text text-decoration="none" x="47.5" fill="#4b4b4b" font-size="10pt" font-family="noto_regular"  y="15"></text></g></g><g id="2l25h5ksnx"><g transform="translate(965 855)"><ellipse cx="35.500241965055466" cy="25.500173211097717" rx="35.500241965055466" ry="25.500173211097717" fill="rgba(255,255,255,1)" stroke="#5e5ca7" stroke-width="1.5" stroke-linecap="round" stroke-linejoin="round"/></g><g transform="translate(973.5002419650555, 863.5001732110977) rotate(0, 27, 17)" width="54" height="34"><text text-decoration="none" x="3.5" fill="rgb(0, 0, 0)" font-size="9pt" font-family="Arial"  y="11">generate&#160;</text><text text-decoration="none" x="9" fill="rgb(0, 0, 0)" font-size="9pt" font-family="Arial"  y="30">receipt</text><text text-decoration="none" x="45" fill="#4b4b4b" font-size="10pt" font-family="noto_regular"  y="30"></text></g></g><g id="9zcvu6vdl3"><g transform="translate(795.05 935)"><ellipse cx="37.99974822998047" cy="22.999725341796875" rx="37.99974822998047" ry="22.999725341796875" fill="rgba(255,255,255,1)" stroke="#5e5ca7" stroke-width="1.5" stroke-linecap="round" stroke-linejoin="round"/></g><g transform="translate(804.5497482299804, 933.4997253417969) rotate(0, 28.5, 24.5)" width="57" height="49"><text text-decoration="none" x="16.5" fill="rgb(0, 0, 0)" font-size="9pt" font-family="Arial"  y="11">view&#160;</text><text text-decoration="none" x="3" fill="rgb(0, 0, 0)" font-size="9pt" font-family="Arial"  y="26">customer&#160;</text><text text-decoration="none" x="11.5" fill="rgb(0, 0, 0)" font-size="9pt" font-family="Arial"  y="45">record</text><text text-decoration="none" x="45.5" fill="#4b4b4b" font-size="10pt" font-family="noto_regular"  y="45"></text></g></g><g id="6ddri12ur5"><g transform="translate(530 575)"><ellipse cx="20.396943717956542" cy="10.10075" rx="10.198471858978271" ry="10.10075" fill="rgba(255,255,255,1)" stroke="#003494" stroke-width="2" stroke-linecap="round" stroke-linejoin="round"/><path d="M 20.396943717956542,20.2015 L 20.396943717956542,48.483599999999996 L 40.793887435913085,80.806 M 20.396943717956542,48.483599999999996 L 0,80.806 M 2.039694371795654,30.30225 L 38.75419306411743,30.30225" fill="none" stroke="#003494" stroke-width="2" stroke-linecap="round" stroke-linejoin="round"/><rect x="0" y="0" width="40.793887435913085" height="80.806" fill="rgba(255,255,255,0.01)" stroke="rgba(255,255,255,0.01)" stroke-width="2" stroke-linecap="round" stroke-linejoin="round"/></g><g transform="translate(521.8969437179566, 660.806) rotate(0, 28.5, 0)" width="57" height="19"><text text-decoration="none" x="3" fill="rgb(20, 56, 114)" font-size="9pt" font-family="Arial"  y="15">customer</text><text text-decoration="none" x="54" fill="#4b4b4b" font-size="10pt" font-family="noto_regular"  y="15"></text></g></g><g id="25ay4rneq9"><g transform="translate(535 975)"><ellipse cx="20.396943717956542" cy="10.10075" rx="10.198471858978271" ry="10.10075" fill="rgba(255,255,255,1)" stroke="#003494" stroke-width="2" stroke-linecap="round" stroke-linejoin="round"/><path d="M 20.396943717956542,20.2015 L 20.396943717956542,48.483599999999996 L 40.793887435913085,80.806 M 20.396943717956542,48.483599999999996 L 0,80.806 M 2.039694371795654,30.30225 L 38.75419306411743,30.30225" fill="none" stroke="#003494" stroke-width="2" stroke-linecap="round" stroke-linejoin="round"/><rect x="0" y="0" width="40.793887435913085" height="80.806" fill="rgba(255,255,255,0.01)" stroke="rgba(255,255,255,0.01)" stroke-width="2" stroke-linecap="round" stroke-linejoin="round"/></g><g transform="translate(528.3969437179566, 1060.806) rotate(0, 27, 0)" width="54" height="19"><text text-decoration="none" x="2.5" fill="rgb(20, 56, 114)" font-size="9pt" font-family="Arial"  y="15">manager</text><text text-decoration="none" x="51.5" fill="#4b4b4b" font-size="10pt" font-family="noto_regular"  y="15"></text></g></g><g id="2ard7txfyy"><g transform="translate(535 705)"><ellipse cx="20.396943717956542" cy="10.10075" rx="10.198471858978271" ry="10.10075" fill="rgba(255,255,255,1)" stroke="#003494" stroke-width="2" stroke-linecap="round" stroke-linejoin="round"/><path d="M 20.396943717956542,20.2015 L 20.396943717956542,48.483599999999996 L 40.793887435913085,80.806 M 20.396943717956542,48.483599999999996 L 0,80.806 M 2.039694371795654,30.30225 L 38.75419306411743,30.30225" fill="none" stroke="#003494" stroke-width="2" stroke-linecap="round" stroke-linejoin="round"/><rect x="0" y="0" width="40.793887435913085" height="80.806" fill="rgba(255,255,255,0.01)" stroke="rgba(255,255,255,0.01)" stroke-width="2" stroke-linecap="round" stroke-linejoin="round"/></g><g transform="translate(533.8969437179566, 790.806) rotate(0, 21.5, 0)" width="43" height="19"><text text-decoration="none" x="2" fill="rgb(20, 56, 114)" font-size="9pt" font-family="Arial"  y="15">cashier</text><text text-decoration="none" x="41" fill="#4b4b4b" font-size="10pt" font-family="noto_regular"  y="15"></text></g></g><g id="1n3ib65kbn"><g transform="translate(530 840)"><ellipse cx="20.396943717956542" cy="10.10075" rx="10.198471858978271" ry="10.10075" fill="rgba(255,255,255,1)" stroke="#003494" stroke-width="2" stroke-linecap="round" stroke-linejoin="round"/><path d="M 20.396943717956542,20.2015 L 20.396943717956542,48.483599999999996 L 40.793887435913085,80.806 M 20.396943717956542,48.483599999999996 L 0,80.806 M 2.039694371795654,30.30225 L 38.75419306411743,30.30225" fill="none" stroke="#003494" stroke-width="2" stroke-linecap="round" stroke-linejoin="round"/><rect x="0" y="0" width="40.793887435913085" height="80.806" fill="rgba(255,255,255,0.01)" stroke="rgba(255,255,255,0.01)" stroke-width="2" stroke-linecap="round" stroke-linejoin="round"/></g><g transform="translate(530.3969437179566, 925.806) rotate(0, 20, 0)" width="40" height="34"><text text-decoration="none" x="2.5" fill="rgb(20, 56, 114)" font-size="9pt" font-family="Arial"  y="11">kichen&#160;</text><text text-decoration="none" x="7.5" fill="rgb(20, 56, 114)" font-size="9pt" font-family="Arial"  y="30">staff</text><text text-decoration="none" x="32.5" fill="#4b4b4b" font-size="10pt" font-family="noto_regular"  y="30"></text></g></g><g id="bgvy5jxih3"><g><path d="M 570,615 L 740.05,580" fill="none" stroke="#003494" stroke-width="2" stroke-linecap="round" stroke-linejoin="round"/></g></g><g id="1pxwhpk3jz"><g><path d="M 555,975 L 740.05,580" fill="none" stroke="#003494" stroke-width="2" stroke-linecap="round" stroke-linejoin="round"/></g></g><g id="24c3i6hjnk"><g><path d="M 575,745 L 800.05,835" fill="none" stroke="#003494" stroke-width="2" stroke-linecap="round" stroke-linejoin="round"/></g></g><g id="1ynjvywu16"><g><path d="M 570,880 L 800.05,895" fill="none" stroke="#003494" stroke-width="2" stroke-linecap="round" stroke-linejoin="round"/></g></g><g id="62iu59l03b"><g><path d="M 555,975 L 800.05,725" fill="none" stroke="#003494" stroke-width="2" stroke-linecap="round" stroke-linejoin="round"/></g></g><g id="1b2hkrs3ik"><g><path d="M 550,840 L 800.05,725" fill="none" stroke="#003494" stroke-width="2" stroke-linecap="round" stroke-linejoin="round"/></g></g><g id="278mxsi0z0"><g><path d="M 575,1015 L 795.05,960" fill="none" stroke="#003494" stroke-width="2" stroke-linecap="round" stroke-linejoin="round"/></g></g><g id="5lwrdj6dus"><g><path d="M 570,615 L 800.05,675" fill="none" stroke="#003494" stroke-width="2" stroke-linecap="round" stroke-linejoin="round"/></g></g><g id="1iv0zuh1vx"><g><path d="M 570,615 L 800.05,725" fill="none" stroke="#003494" stroke-width="2" stroke-linecap="round" stroke-linejoin="round"/></g></g><g id="d0ow4ruxb2"><g><path d="M 570,615 L 795.05,780" fill="none" stroke="#003494" stroke-width="2" stroke-linecap="round" stroke-linejoin="round"/></g></g><g id="r7lrfddv1h"><g><path d="M 575,745 L 800.05,725" fill="none" stroke="#003494" stroke-width="2" stroke-linecap="round" stroke-linejoin="round"/></g></g><g id="6lklbpj5nk"><mask id="9b444" x="786.05" y="566" width="192.95000000000005" height="28" maskUnits="userSpaceOnUse"><rect x="786.05" y="566" width="192.95000000000005" height="28" fill="white" /><rect x="838.525" y="567.5" width="88" height="25" fill="black" /><rect x="838.525" y="567.5" width="88" height="25" fill="black" /><rect x="838.525" y="567.5" width="88" height="25" fill="black" /></mask><g mask="url(#9b444)"><path d="M 800.05,580 L 965,580" fill="none" stroke="#003494" stroke-width="2" stroke-linecap="round" stroke-linejoin="round"/><path d="M 958.006993006993,573.4659090909091 Q 961.5034965034965,580 965,580 M 958.006993006993,586.5340909090909 Q 961.5034965034965,580 965,580 M 965,580 Z" fill="none" stroke="#003494" stroke-width="2" stroke-linecap="round" stroke-linejoin="round"/></g><g transform="translate(841.525, 570.5)" width="82" height="19"><text text-decoration="none" x="11" fill="rgb(0, 0, 0)" font-size="9pt" font-family="Arial"  y="15">&#x3C;&#x3C;extend&#x3E;&#x3E;</text><text text-decoration="none" x="71" fill="#4b4b4b" font-size="10pt" font-family="noto_regular"  y="15"></text></g><g transform="translate(841.525, 570.5)" width="82" height="19"><text text-decoration="none" x="11" fill="rgb(0, 0, 0)" font-size="9pt" font-family="Arial"  y="15">&#x3C;&#x3C;extend&#x3E;&#x3E;</text><text text-decoration="none" x="71" fill="#4b4b4b" font-size="10pt" font-family="noto_regular"  y="15"></text></g><g transform="translate(841.525, 570.5)" width="82" height="19"><text text-decoration="none" x="11" fill="rgb(0, 0, 0)" font-size="9pt" font-family="Arial"  y="15">&#x3C;&#x3C;extend&#x3E;&#x3E;</text><text text-decoration="none" x="71" fill="#4b4b4b" font-size="10pt" font-family="noto_regular"  y="15"></text></g></g><g id="240uxwfay5"><mask id="89cfc" x="856.05" y="661" width="137.95000000000005" height="63" maskUnits="userSpaceOnUse"><rect x="856.05" y="661" width="137.95000000000005" height="63" fill="white" /><rect x="881.025" y="680" width="88" height="25" fill="black" /><rect x="881.025" y="680" width="88" height="25" fill="black" /><rect x="881.025" y="680" width="88" height="25" fill="black" /></mask><g mask="url(#89cfc)"><path d="M 870.05,675 L 980,710" fill="none" stroke="#003494" stroke-width="2" stroke-linecap="round" stroke-linejoin="round"/><path d="M 975.3184403140331,701.6525758632235 Q 976.6682309965803,708.939409594182 980,710 M 971.3544836722883,714.1050625135045 Q 976.6682309965803,708.939409594182 980,710 M 980,710 Z" fill="none" stroke="#003494" stroke-width="2" stroke-linecap="round" stroke-linejoin="round"/></g><g transform="translate(884.025, 683)" width="82" height="19"><text text-decoration="none" x="11" fill="rgb(0, 0, 0)" font-size="9pt" font-family="Arial"  y="15">&#x3C;&#x3C;extend&#x3E;&#x3E;</text><text text-decoration="none" x="71" fill="#4b4b4b" font-size="10pt" font-family="noto_regular"  y="15"></text></g><g transform="translate(884.025, 683)" width="82" height="19"><text text-decoration="none" x="11" fill="rgb(0, 0, 0)" font-size="9pt" font-family="Arial"  y="15">&#x3C;&#x3C;extend&#x3E;&#x3E;</text><text text-decoration="none" x="71" fill="#4b4b4b" font-size="10pt" font-family="noto_regular"  y="15"></text></g><g transform="translate(884.025, 683)" width="82" height="19"><text text-decoration="none" x="11" fill="rgb(0, 0, 0)" font-size="9pt" font-family="Arial"  y="15">&#x3C;&#x3C;extend&#x3E;&#x3E;</text><text text-decoration="none" x="71" fill="#4b4b4b" font-size="10pt" font-family="noto_regular"  y="15"></text></g></g><g id="vm2ngmyabn"><mask id="2ceca" x="856.05" y="711" width="132.95000000000005" height="73" maskUnits="userSpaceOnUse"><rect x="856.05" y="711" width="132.95000000000005" height="73" fill="white" /><rect x="878.525" y="735" width="88" height="25" fill="black" /><rect x="878.525" y="735" width="88" height="25" fill="black" /><rect x="878.525" y="735" width="88" height="25" fill="black" /></mask><g mask="url(#2ceca)"><path d="M 870.05,725 L 975,770" fill="none" stroke="#003494" stroke-width="2" stroke-linecap="round" stroke-linejoin="round"/><path d="M 971.1478279741691,761.2388778403725 Q 971.7864438045729,768.6221054902885 975,770 M 965.9979472441224,773.2495441207815 Q 971.7864438045729,768.6221054902885 975,770 M 975,770 Z" fill="none" stroke="#003494" stroke-width="2" stroke-linecap="round" stroke-linejoin="round"/></g><g transform="translate(881.525, 738)" width="82" height="19"><text text-decoration="none" x="11" fill="rgb(0, 0, 0)" font-size="9pt" font-family="Arial"  y="15">&#x3C;&#x3C;extend&#x3E;&#x3E;</text><text text-decoration="none" x="71" fill="#4b4b4b" font-size="10pt" font-family="noto_regular"  y="15"></text></g><g transform="translate(881.525, 738)" width="82" height="19"><text text-decoration="none" x="11" fill="rgb(0, 0, 0)" font-size="9pt" font-family="Arial"  y="15">&#x3C;&#x3C;extend&#x3E;&#x3E;</text><text text-decoration="none" x="71" fill="#4b4b4b" font-size="10pt" font-family="noto_regular"  y="15"></text></g><g transform="translate(881.525, 738)" width="82" height="19"><text text-decoration="none" x="11" fill="rgb(0, 0, 0)" font-size="9pt" font-family="Arial"  y="15">&#x3C;&#x3C;extend&#x3E;&#x3E;</text><text text-decoration="none" x="71" fill="#4b4b4b" font-size="10pt" font-family="noto_regular"  y="15"></text></g></g><g id="5n5njfur68"><mask id="32ae3" x="856.05" y="821" width="122.95000000000005" height="73" maskUnits="userSpaceOnUse"><rect x="856.05" y="821" width="122.95000000000005" height="73" fill="white" /><rect x="872.525" y="845" width="90" height="25" fill="black" /><rect x="872.525" y="845" width="90" height="25" fill="black" /><rect x="872.525" y="845" width="90" height="25" fill="black" /></mask><g mask="url(#32ae3)"><path d="M 870.05,835 L 965,880" fill="none" stroke="#003494" stroke-width="2" stroke-linecap="round" stroke-linejoin="round"/><path d="M 961.4791228742667,871.1005665866867 Q 961.8403824623936,878.5025509300443 965,880 M 955.8824069753075,882.9096371334907 Q 961.8403824623936,878.5025509300443 965,880 M 965,880 Z" fill="none" stroke="#003494" stroke-width="2" stroke-linecap="round" stroke-linejoin="round"/></g><g transform="translate(875.525, 848)" width="84" height="19"><text text-decoration="none" x="10.5" fill="rgb(0, 0, 0)" font-size="9pt" font-family="Arial"  y="15">&#x3C;&#x3C;include&#x3E;&#x3E;</text><text text-decoration="none" x="73.5" fill="#4b4b4b" font-size="10pt" font-family="noto_regular"  y="15"></text></g><g transform="translate(875.525, 848)" width="84" height="19"><text text-decoration="none" x="10.5" fill="rgb(0, 0, 0)" font-size="9pt" font-family="Arial"  y="15">&#x3C;&#x3C;include&#x3E;&#x3E;</text><text text-decoration="none" x="73.5" fill="#4b4b4b" font-size="10pt" font-family="noto_regular"  y="15"></text></g><g transform="translate(875.525, 848)" width="84" height="19"><text text-decoration="none" x="10.5" fill="rgb(0, 0, 0)" font-size="9pt" font-family="Arial"  y="15">&#x3C;&#x3C;include&#x3E;&#x3E;</text><text text-decoration="none" x="73.5" fill="#4b4b4b" font-size="10pt" font-family="noto_regular"  y="15"></text></g></g><g id="aeag64uqmm"><g transform="translate(800 605)"><ellipse cx="33.000225841999054" cy="20.500137358903885" rx="33.000225841999054" ry="20.500137358903885" fill="rgba(255,255,255,1)" stroke="#5e5ca7" stroke-width="1.5" stroke-linecap="round" stroke-linejoin="round"/></g><g transform="translate(817.000225841999, 608.5001373589039) rotate(0, 16, 17)" width="32" height="34"><text text-decoration="none" x="1.5" fill="rgb(0, 0, 0)" font-size="9pt" font-family="Arial"  y="11">place&#160;</text><text text-decoration="none" x="2" fill="rgb(0, 0, 0)" font-size="9pt" font-family="Arial"  y="30">order</text><text text-decoration="none" x="30" fill="#4b4b4b" font-size="10pt" font-family="noto_regular"  y="30"></text></g></g><g id="3onsaxthqt"><g><path d="M 570,615 L 800,625" fill="none" stroke="#003494" stroke-width="2" stroke-linecap="round" stroke-linejoin="round"/></g></g><g id="hblwszpti1"><g><path d="M 555,705 L 740.05,580" fill="none" stroke="#003494" stroke-width="2" stroke-linecap="round" stroke-linejoin="round"/></g></g><g id="1e6c099sd5"><g><path d="M 550,840 L 740.05,580" fill="none" stroke="#003494" stroke-width="2" stroke-linecap="round" stroke-linejoin="round"/></g></g><g id="2iw8rrhbxw"><g><path d="M 555,975 L 800.05,675" fill="none" stroke="#003494" stroke-width="2" stroke-linecap="round" stroke-linejoin="round"/></g></g></svg>