<svg width="182" height="64" viewBox="0 0 182 64" fill="none" xmlns="http://www.w3.org/2000/svg">
<path d="M49.1819 49.6119C53.8404 44.9356 56.4519 38.6015 56.4429 32.0011C56.4379 31.5937 56.2727 31.2046 55.9828 30.9183C55.6929 30.6318 55.302 30.4714 54.8947 30.4714C54.487 30.4714 54.0961 30.6318 53.8063 30.9183C53.5164 31.2046 53.3512 31.5937 53.3462 32.0011C53.3528 37.7854 51.063 43.3361 46.98 47.4335C44.998 49.4684 42.6285 51.0858 40.011 52.1902C37.3939 53.2944 34.5819 53.8634 31.7412 53.8634C28.9005 53.8634 26.0886 53.2944 23.4713 52.1902C20.8541 51.0858 18.4845 49.4684 16.5024 47.4335C12.425 43.332 10.1363 37.7836 10.1363 32.0002C10.1363 26.2166 12.425 20.6681 16.5024 16.5666C18.473 14.5473 20.8248 12.9393 23.4214 11.8358C26.0181 10.7323 28.808 10.1552 31.6294 10.1381C32.2318 10.1569 32.803 10.4104 33.2212 10.8444C33.6395 11.2784 33.8715 11.8587 33.8679 12.4614C33.8645 13.0641 33.6257 13.6416 33.2025 14.0707C32.7793 14.4999 32.2051 14.7467 31.6025 14.7585C31.5467 14.7586 31.4909 14.7617 31.4355 14.7678C27.1431 14.906 23.0702 16.6983 20.0686 19.7699C16.8987 22.9609 15.1196 27.2763 15.1196 31.7742C15.1196 36.2722 16.8987 40.5874 20.0686 43.7785C21.6172 45.3649 23.4675 46.6255 25.5105 47.4861C27.5535 48.3468 29.7481 48.7901 31.9649 48.7901C34.1817 48.7901 36.3764 48.3468 38.4194 47.4861C40.4623 46.6255 42.3126 45.3649 43.8612 43.7785C47.0361 40.5908 48.8159 36.2733 48.8096 31.7742C48.8161 31.0656 48.6821 30.3625 48.4155 29.7058C48.1487 29.0493 47.7546 28.4521 47.2557 27.9486C46.7568 27.4452 46.1632 27.0456 45.5091 26.7729C44.855 26.5002 44.1534 26.3598 43.4446 26.3598C42.7358 26.3598 42.0342 26.5002 41.3801 26.7729C40.726 27.0456 40.1324 27.4452 39.6335 27.9486C39.1346 28.4521 38.7405 29.0493 38.4737 29.7058C38.2071 30.3625 38.0731 31.0656 38.0796 31.7742C38.0796 31.8194 38.0826 31.8619 38.0862 31.9053C38.0826 31.9486 38.0796 31.992 38.0796 32.0363C38.0898 33.2718 37.7326 34.4824 37.0533 35.5148C36.3744 36.547 35.4039 37.3541 34.2653 37.834C33.1268 38.3137 31.8712 38.4445 30.6583 38.2097C29.4452 37.9747 28.3292 37.385 27.452 36.5149C26.5747 35.6447 25.9757 34.5337 25.7309 33.3226C25.4862 32.1115 25.6067 30.855 26.0771 29.7126C26.5476 28.57 27.3469 27.593 28.3735 26.9055C29.4001 26.218 30.6079 25.8509 31.8434 25.8509C32.0483 25.8534 32.2517 25.8152 32.4417 25.7385C32.6317 25.6618 32.8046 25.5481 32.9503 25.4041C33.096 25.2601 33.212 25.0885 33.2908 24.8994C33.3699 24.7104 33.4106 24.5075 33.4106 24.3026C33.4106 24.0977 33.3699 23.8948 33.2908 23.7057C33.212 23.5166 33.096 23.3451 32.9503 23.2011C32.8046 23.057 32.6317 22.9434 32.4417 22.8667C32.2517 22.79 32.0483 22.7518 31.8434 22.7542C30.0098 22.7644 28.2202 23.3175 26.7005 24.3436C25.1808 25.3697 23.9991 26.823 23.3044 28.52C22.6098 30.2169 22.4333 32.0817 22.7973 33.8789C23.1613 35.6761 24.0494 37.3251 25.3496 38.6183C26.6498 39.9111 28.3038 40.7901 30.1031 41.1442C31.9021 41.498 33.766 41.3111 35.459 40.6071C37.1521 39.903 38.5989 38.7134 39.6165 37.188C40.6342 35.6626 41.1772 33.8699 41.1772 32.0363C41.1772 31.9911 41.1742 31.9486 41.1706 31.9053C41.1742 31.8619 41.1772 31.8185 41.1772 31.7742C41.1711 31.4726 41.2253 31.1727 41.3367 30.8921C41.4479 30.6117 41.6142 30.3561 41.8252 30.1408C42.0365 29.9252 42.2886 29.754 42.5668 29.6372C42.8449 29.5203 43.1439 29.4601 43.4455 29.4601C43.7471 29.4601 44.0461 29.5203 44.3242 29.6372C44.6024 29.754 44.8545 29.9252 45.0658 30.1408C45.2768 30.3561 45.4431 30.6117 45.5543 30.8921C45.6657 31.1727 45.7199 31.4726 45.7138 31.7742C45.7179 35.4577 44.2598 38.992 41.6598 41.601C40.3992 42.8962 38.8919 43.9254 37.2269 44.6283C35.5618 45.3313 33.7728 45.6932 31.9654 45.6932C30.1582 45.6932 28.3692 45.3313 26.7042 44.6283C25.0391 43.9254 23.5318 42.8962 22.2712 41.601C19.6747 38.9897 18.2172 35.4567 18.2172 31.7742C18.2172 28.0917 19.6747 24.5588 22.2712 21.9474C23.5328 20.6539 25.0402 19.6256 26.7048 18.9229C28.3694 18.2201 30.1576 17.8571 31.9645 17.8552C32.1034 17.8548 32.2417 17.8357 32.3757 17.7982C33.6939 17.5961 34.8908 16.9144 35.7372 15.8839C36.5836 14.8534 37.0197 13.5467 36.9618 12.2145C36.904 10.8822 36.3561 9.61825 35.4236 8.66503C34.4911 7.7118 33.2395 7.13643 31.9089 7.0493C31.8533 7.04325 31.7973 7.04016 31.7412 7.04004C31.7101 7.04004 31.6791 7.04004 31.6479 7.04004C31.6326 7.04004 31.6176 7.04004 31.6027 7.04004C31.5878 7.04004 31.5725 7.04185 31.5575 7.0423C28.3386 7.06761 25.1566 7.72984 22.1949 8.99081C19.2331 10.2518 16.5503 12.0865 14.301 14.3893C9.65025 19.0705 7.04004 25.4013 7.04004 32.0002C7.04004 38.5988 9.65025 44.9295 14.301 49.6108C16.5711 51.9369 19.2835 53.7857 22.2787 55.0476C25.274 56.3098 28.4914 56.96 31.7417 56.96C34.992 56.96 38.2093 56.3098 41.2047 55.0476C44.1999 53.7857 46.9123 51.9369 49.1824 49.6108L49.1819 49.6119Z" fill="#B81D1D"/>
<path d="M84.3003 26.0156C84.181 24.8991 83.6782 24.0298 82.7918 23.4077C81.914 22.7855 80.7719 22.4744 79.3657 22.4744C78.377 22.4744 77.529 22.6236 76.8216 22.9219C76.1143 23.2202 75.5731 23.625 75.1981 24.1364C74.8231 24.6477 74.6313 25.2315 74.6228 25.8878C74.6228 26.4332 74.7464 26.9062 74.9935 27.3068C75.2492 27.7074 75.5944 28.0483 76.029 28.3295C76.4637 28.6023 76.9452 28.8324 77.4736 29.0199C78.002 29.2074 78.5347 29.3651 79.0716 29.4929L81.5262 30.1065C82.5148 30.3366 83.4651 30.6477 84.377 31.0398C85.2975 31.4318 86.1199 31.9261 86.8444 32.5227C87.5773 33.1193 88.1569 33.8395 88.583 34.6832C89.0091 35.527 89.2222 36.5156 89.2222 37.6491C89.2222 39.1832 88.8302 40.5341 88.0461 41.7017C87.262 42.8608 86.1285 43.7685 84.6455 44.4247C83.1711 45.0724 81.3856 45.3963 79.289 45.3963C77.252 45.3963 75.4836 45.081 73.9836 44.4503C72.4921 43.8196 71.3245 42.8991 70.4807 41.6889C69.6455 40.4787 69.1938 39.0043 69.1256 37.2656H73.7918C73.86 38.1776 74.1412 38.9361 74.6356 39.5412C75.1299 40.1463 75.7733 40.598 76.566 40.8963C77.3671 41.1946 78.262 41.3438 79.2506 41.3438C80.2819 41.3438 81.1853 41.1903 81.9608 40.8835C82.7449 40.5682 83.3586 40.1335 83.8018 39.5795C84.2449 39.017 84.4708 38.3608 84.4793 37.6108C84.4708 36.929 84.2705 36.3665 83.8785 35.9233C83.4864 35.4716 82.9367 35.0966 82.2293 34.7983C81.5305 34.4915 80.7123 34.2187 79.7748 33.9801L76.7961 33.2131C74.6398 32.6591 72.9353 31.8196 71.6824 30.6946C70.4381 29.5611 69.816 28.0568 69.816 26.1818C69.816 24.6392 70.2336 23.2884 71.0688 22.1293C71.9126 20.9702 73.0589 20.071 74.5077 19.4318C75.9566 18.7841 77.5972 18.4602 79.4296 18.4602C81.2876 18.4602 82.9154 18.7841 84.3131 19.4318C85.7194 20.071 86.8231 20.9616 87.6242 22.1037C88.4253 23.2372 88.8387 24.5412 88.8643 26.0156H84.3003ZM105.762 36.7415V25.3636H110.389V45H105.902V41.5099H105.698C105.255 42.6094 104.526 43.5085 103.512 44.2074C102.506 44.9062 101.266 45.2557 99.7915 45.2557C98.5045 45.2557 97.3667 44.9702 96.3781 44.3991C95.398 43.8196 94.6309 42.9801 94.077 41.8807C93.523 40.7727 93.246 39.4347 93.246 37.8665V25.3636H97.8738V37.1506C97.8738 38.3949 98.2148 39.3835 98.8966 40.1165C99.5784 40.8494 100.473 41.2159 101.581 41.2159C102.263 41.2159 102.924 41.0497 103.563 40.7173C104.202 40.3849 104.726 39.8906 105.135 39.2344C105.553 38.5696 105.762 37.7386 105.762 36.7415ZM115.148 45V25.3636H119.636V28.6364H119.84C120.198 27.5028 120.812 26.6293 121.681 26.0156C122.559 25.3935 123.56 25.0824 124.685 25.0824C124.941 25.0824 125.226 25.0952 125.542 25.1207C125.866 25.1378 126.134 25.1676 126.347 25.2102V29.4673C126.151 29.3991 125.84 29.3395 125.414 29.2884C124.996 29.2287 124.592 29.1989 124.199 29.1989C123.356 29.1989 122.597 29.3821 121.924 29.7486C121.259 30.1065 120.735 30.6051 120.351 31.2443C119.968 31.8835 119.776 32.6207 119.776 33.456V45H115.148ZM129.626 45V18.8182H134.254V28.6108H134.446C134.685 28.1335 135.021 27.6264 135.456 27.0895C135.891 26.544 136.479 26.0795 137.22 25.696C137.962 25.304 138.908 25.108 140.058 25.108C141.575 25.108 142.943 25.4957 144.162 26.2713C145.389 27.0384 146.361 28.1761 147.077 29.6847C147.801 31.1847 148.163 33.0256 148.163 35.2074C148.163 37.3636 147.81 39.196 147.102 40.7045C146.395 42.2131 145.432 43.3636 144.213 44.1562C142.994 44.9489 141.614 45.3452 140.071 45.3452C138.946 45.3452 138.013 45.1577 137.271 44.7827C136.53 44.4077 135.933 43.956 135.481 43.4276C135.038 42.8906 134.693 42.3835 134.446 41.9062H134.177V45H129.626ZM134.165 35.1818C134.165 36.4517 134.344 37.5639 134.702 38.5185C135.068 39.473 135.592 40.2187 136.274 40.7557C136.964 41.2841 137.8 41.5483 138.78 41.5483C139.802 41.5483 140.659 41.2756 141.349 40.7301C142.04 40.1761 142.56 39.4219 142.909 38.4673C143.267 37.5043 143.446 36.4091 143.446 35.1818C143.446 33.9631 143.271 32.8807 142.922 31.9347C142.572 30.9886 142.052 30.2472 141.362 29.7102C140.672 29.1733 139.811 28.9048 138.78 28.9048C137.791 28.9048 136.952 29.1648 136.261 29.6847C135.571 30.2045 135.047 30.9332 134.689 31.8707C134.339 32.8082 134.165 33.9119 134.165 35.1818ZM156.725 33.4943V45H152.098V18.8182H156.623V28.7003H156.853C157.313 27.5923 158.025 26.7187 158.988 26.0795C159.96 25.4318 161.196 25.108 162.696 25.108C164.059 25.108 165.248 25.3935 166.262 25.9645C167.277 26.5355 168.061 27.3707 168.615 28.4702C169.177 29.5696 169.458 30.9119 169.458 32.4972V45H164.831V33.2131C164.831 31.892 164.49 30.8651 163.808 30.1321C163.134 29.3906 162.188 29.0199 160.97 29.0199C160.152 29.0199 159.419 29.1989 158.771 29.5568C158.132 29.9062 157.629 30.4134 157.262 31.0781C156.904 31.7429 156.725 32.5483 156.725 33.4943ZM174.176 45V25.3636H178.804V45H174.176ZM176.502 22.5767C175.769 22.5767 175.139 22.3338 174.61 21.848C174.082 21.3537 173.818 20.7614 173.818 20.071C173.818 19.3722 174.082 18.7798 174.61 18.294C175.139 17.7997 175.769 17.5526 176.502 17.5526C177.244 17.5526 177.875 17.7997 178.394 18.294C178.923 18.7798 179.187 19.3722 179.187 20.071C179.187 20.7614 178.923 21.3537 178.394 21.848C177.875 22.3338 177.244 22.5767 176.502 22.5767Z" fill="#262626"/>
</svg>
